<svg width="124" height="113" viewBox="0 0 124 113" fill="none" xmlns="http://www.w3.org/2000/svg">
<circle cx="56.5" cy="56.5" r="56.5" fill="#F2D0BD"/>
<path d="M34 84L39.7547 43.7172C39.8954 42.7319 40.7393 42 41.7346 42H71.2448C72.249 42 73.0975 42.7446 73.2279 43.7403L75.75 63L78.5 84M78.5 84H27M78.5 84H85.5M66 49.5V37.6079C66 32.3016 61.6984 28 56.3921 28C51.1708 28 46.9052 32.1697 46.7866 37.3896L46.5 50" stroke="white" stroke-width="2"/>
<path d="M45 60H68L71 77H43L45 60Z" fill="white"/>
<circle cx="105" cy="94" r="19" fill="#CEA086"/>
<rect x="104" y="83" width="3" height="13" rx="1.5" fill="white"/>
<rect x="103" y="99" width="5" height="5" rx="2.5" fill="white"/>
</svg>
