<svg width="157" height="94" viewBox="0 0 157 94" fill="none" xmlns="http://www.w3.org/2000/svg">
<path d="M111.04 1.07234H113.088C115.136 1.07234 117.141 1.32834 119.104 1.84034C121.067 2.26701 122.816 3.07767 124.352 4.27234C125.888 5.38167 127.125 6.91767 128.064 8.88034C129.003 10.843 129.472 13.3603 129.472 16.4323V78.7683C129.472 81.9257 128.96 84.4857 127.936 86.4483C126.997 88.411 125.717 89.947 124.096 91.0563C122.56 92.1657 120.725 92.9337 118.592 93.3603C116.544 93.787 114.453 94.0003 112.32 94.0003H111.04V1.07234ZM154.816 94.0003H153.536C151.317 94.0003 149.099 93.787 146.88 93.3603C144.747 92.9337 142.784 92.1657 140.992 91.0563C139.285 89.947 137.877 88.411 136.768 86.4483C135.659 84.4857 135.104 81.9257 135.104 78.7683V47.7923H137.152C139.285 47.7923 141.419 48.0483 143.552 48.5603C145.685 48.987 147.563 49.7977 149.184 50.9923C150.891 52.1017 152.256 53.6377 153.28 55.6003C154.304 57.563 154.816 60.0803 154.816 63.1523V94.0003ZM156.096 29.1043C156.096 34.2243 155.029 38.4057 152.896 41.6483C150.763 44.8057 147.349 46.3843 142.656 46.3843C140.949 46.3843 139.413 46.1283 138.048 45.6163C136.683 45.019 135.531 44.2937 134.592 43.4403C133.653 42.587 132.928 41.6057 132.416 40.4963C131.904 39.387 131.648 38.3203 131.648 37.2963C131.648 36.2723 131.691 35.4617 131.776 34.8643C131.861 34.267 131.947 33.755 132.032 33.3283C132.459 33.8403 132.843 34.2243 133.184 34.4803C133.611 34.7363 134.165 34.8643 134.848 34.8643C136.043 34.779 136.768 34.3097 137.024 33.4563C137.28 32.5177 137.408 31.4083 137.408 30.1283V1.20034H139.072C140.864 1.20034 142.741 1.37101 144.704 1.71234C146.667 2.05368 148.501 2.77901 150.208 3.88834C151.915 4.91234 153.323 6.491 154.432 8.62434C155.541 10.6723 156.096 13.4457 156.096 16.9443V29.1043Z" fill="white"/>
<path d="M31.2479 22.4483C31.2479 21.5097 31.1626 20.571 30.9919 19.6323C30.9066 18.6083 30.6506 17.7123 30.2239 16.9443C29.8826 16.091 29.3279 15.4083 28.5599 14.8963C27.8772 14.3843 26.8959 14.1283 25.6159 14.1283C23.9946 14.1283 22.6292 14.6403 21.5199 15.6643C21.0079 14.299 20.7519 13.0617 20.7519 11.9523C20.7519 10.587 20.9652 9.26434 21.3919 7.98434C21.9039 6.61901 22.6719 5.42434 23.6959 4.40034C24.7199 3.37634 25.9999 2.56567 27.5359 1.96834C29.1572 1.28567 31.1199 0.944336 33.4239 0.944336C38.5439 0.944336 42.5119 2.48034 45.3279 5.55234C48.1439 8.62434 49.5519 12.8483 49.5519 18.2243V94.0003C47.2479 94.0003 44.9866 93.8297 42.7679 93.4883C40.6346 93.147 38.6719 92.4643 36.8799 91.4403C35.1732 90.331 33.8079 88.7097 32.7839 86.5763C31.7599 84.443 31.2479 81.5843 31.2479 78.0003V22.4483ZM18.8319 94.0003H17.5519C15.3332 94.0003 13.1999 93.787 11.1519 93.3603C9.1039 92.9337 7.26924 92.1657 5.6479 91.0563C4.1119 89.947 2.8319 88.411 1.8079 86.4483C0.869236 84.4857 0.399902 81.9257 0.399902 78.7683V1.07234H2.4479C4.4959 1.07234 6.50124 1.32834 8.4639 1.84034C10.4266 2.26701 12.1759 3.07767 13.7119 4.27234C15.2479 5.38167 16.4852 6.91767 17.4239 8.88034C18.3626 10.843 18.8319 13.3603 18.8319 16.4323V94.0003ZM61.9679 22.4483C61.9679 21.5097 61.8826 20.571 61.7119 19.6323C61.6266 18.6083 61.3706 17.7123 60.9439 16.9443C60.6026 16.091 60.0479 15.4083 59.2799 14.8963C58.5972 14.3843 57.6159 14.1283 56.3359 14.1283C54.7146 14.1283 53.3492 14.6403 52.2399 15.6643C51.7279 14.299 51.4719 13.0617 51.4719 11.9523C51.4719 10.587 51.6852 9.26434 52.1119 7.98434C52.6239 6.61901 53.3919 5.42434 54.4159 4.40034C55.4399 3.37634 56.7199 2.56567 58.2559 1.96834C59.8772 1.28567 61.8399 0.944336 64.1439 0.944336C69.2639 0.944336 73.2319 2.48034 76.0479 5.55234C78.8639 8.62434 80.2719 12.8483 80.2719 18.2243V94.0003C77.9679 94.0003 75.7066 93.8297 73.4879 93.4883C71.3546 93.147 69.3919 92.4643 67.5999 91.4403C65.8932 90.331 64.5279 88.7097 63.5039 86.5763C62.4799 84.443 61.9679 81.5843 61.9679 78.0003V22.4483Z" fill="white"/>
<path d="M103.1 90.4503V78.6303H85.1299L99.5899 85.3803L85.0999 92.1303H104L103.97 93.0303H82.9699V92.1303L97.4599 85.3803L82.9999 78.6303L82.9699 77.7303H104L103.97 90.4503H103.1Z" fill="white"/>
<path d="M103.1 70.9201V61.1401L88.6099 67.2901L104 73.8301V74.7901L86.2999 67.2901L104 59.7901V70.9201H103.1Z" fill="white"/>
<path d="M86.5999 55.9175V44.3075L103.25 51.3575H110V52.2575H103.25L86.5999 59.3075V58.3475L101.99 51.8075L87.4999 45.6575V55.9175H86.5999Z" fill="white"/>
<path d="M86.5999 41.5421V40.6421H104V41.5421H86.5999Z" fill="white"/>
<path d="M104 27.3027H86.5999V26.4027H104V27.3027ZM104 16.2027L94.8199 25.4427L86.5999 17.1627V15.8727L94.8199 24.1527L104 14.9127V16.2027Z" fill="white"/>
<path d="M104 1.66323V2.56323H95.2999V11.5632H104V12.4632H86.5999V11.5632H94.3999V2.56323H86.5999V1.66323H104Z" fill="white"/>
</svg>
