<svg width="48" height="48" viewBox="0 0 48 48" fill="none" xmlns="http://www.w3.org/2000/svg">
<path d="M13.2758 35.1155L14.7759 30.2466C10.2761 22.7472 15.2758 16.2472 19.2759 14.2473C22.9831 12.4034 27.7759 12.2472 32.2759 16.2472C36.0231 19.578 37.2759 29.3449 30.2248 33.7689C26.2759 36.2466 22.2759 35.7466 18.2759 33.7466L13.2758 35.1155Z" stroke="black" stroke-width="0.5"/>
<path d="M1 11C1 5.47715 5.47715 1 11 1H37C42.5228 1 47 5.47715 47 11V37C47 42.5228 42.5228 47 37 47H11C5.47715 47 1 42.5228 1 37V11Z" stroke="black" stroke-width="0.5"/>
<path d="M26.6546 28.9361C23.3092 28.0328 21.2563 25.6241 19.6597 23.5164C18.9298 22.5529 18.9501 21.5091 19.0514 21.1077C19.2542 20.4051 19.903 19 20.8762 19C22.0927 19 22.701 21.1077 22.701 21.7098C22.701 22.1916 22.0927 22.9142 21.7886 23.2153C22.2752 24.6606 24.8298 25.8248 26.0463 26.2263C26.2491 25.9252 26.7154 25.2628 26.9587 25.0219C27.2629 24.7208 30 25.9252 30 26.8284C30 27.7317 28.1507 29.3401 26.6546 28.9361Z" stroke="black" stroke-width="0.5"/>
</svg>
