<svg width="26" height="26" viewBox="0 0 26 26" fill="none" xmlns="http://www.w3.org/2000/svg">
<rect x="0.863281" y="0.25" width="24.8859" height="24.8859" rx="4.75" stroke="white" stroke-width="0.5"/>
<path d="M16.4126 4.9668H13.9292L13.9292 14.0726C13.9292 14.3485 14.2051 17.9357 11.4458 17.9357C9.79021 17.9357 9.26342 16.0041 9.23834 15.7282C9.05077 13.6649 11.1699 13.2448 12.2736 13.5207V10.7614C8.30012 10.0992 6.93886 13.0609 6.75491 14.6245C6.09267 19.7017 10.3422 20.695 12.2736 20.4191C15.309 20.1431 16.6887 17.6597 16.6885 15.4523V10.2095C17.7923 11.3133 19.5398 11.4052 20.2757 11.3133V8.55393C17.1852 8.33319 16.4126 6.07053 16.4126 4.9668Z" stroke="white" stroke-width="0.5"/>
</svg>
