<svg width="27" height="27" viewBox="0 0 27 27" fill="none" xmlns="http://www.w3.org/2000/svg">
<path d="M7.67166 19.541L8.48689 16.8949C6.04138 12.8192 8.75857 9.28654 10.9326 8.1996C12.9474 7.19751 15.5521 7.11263 17.9978 9.28654C20.0343 11.0968 20.7152 16.4049 16.883 18.8092C14.7369 20.1557 12.563 19.884 10.3891 18.7971L7.67166 19.541Z" stroke="white" stroke-width="0.5"/>
<path d="M1 6.43478C1 3.43324 3.43324 1 6.43478 1H20.5652C23.5668 1 26 3.43324 26 6.43478V20.5652C26 23.5668 23.5668 26 20.5652 26H6.43478C3.43324 26 1 23.5668 1 20.5652V6.43478Z" stroke="white" stroke-width="0.5"/>
<path d="M14.9427 16.1827C13.1245 15.6918 12.0089 14.3826 11.1411 13.2372C10.7444 12.7135 10.7555 12.1463 10.8106 11.9281C10.9207 11.5463 11.2734 10.7826 11.8023 10.7826C12.4634 10.7826 12.794 11.9281 12.794 12.2554C12.794 12.5172 12.4634 12.9099 12.2981 13.0735C12.5626 13.859 13.951 14.4917 14.6121 14.7099C14.7223 14.5463 14.9758 14.1863 15.108 14.0554C15.2733 13.8917 16.7609 14.5463 16.7609 15.0372C16.7609 15.5281 15.7558 16.4022 14.9427 16.1827Z" stroke="white" stroke-width="0.5"/>
</svg>
