<svg width="27" height="27" viewBox="0 0 27 27" fill="none" xmlns="http://www.w3.org/2000/svg">
<path d="M16.057 26V17.3176H18.8562L19.2916 13.7206H16.057V11.1158C16.057 10.1236 17.0108 9.66877 17.4877 9.56541H19.4783V6.52656C15.3105 6.15451 12.2624 6.83669 12.2624 9.99957L12.138 13.7206H9.15217V17.3176H12.138V26M6.43478 26H20.5652C23.5668 26 26 23.5668 26 20.5652V6.43478C26 3.43324 23.5668 1 20.5652 1H6.43478C3.43324 1 1 3.43324 1 6.43478V20.5652C1 23.5668 3.43324 26 6.43478 26Z" stroke="white" stroke-width="0.5"/>
</svg>
