<svg width="359" height="258" viewBox="0 0 359 258" fill="none" xmlns="http://www.w3.org/2000/svg">
<mask id="path-1-outside-1_2119_11" maskUnits="userSpaceOnUse" x="0" y="0" width="341" height="205" fill="black">
<rect fill="white" width="341" height="205"/>
<path d="M241.596 1.27914H246.049C250.503 1.27914 254.864 1.8374 259.132 2.95392C263.4 3.88435 267.204 5.65217 270.544 8.25738C273.884 10.6765 276.575 14.0261 278.616 18.306C280.657 22.586 281.678 28.0756 281.678 34.7747V170.711C281.678 177.596 280.564 183.179 278.338 187.459C276.296 191.739 273.513 195.088 269.987 197.507C266.647 199.926 262.657 201.601 258.018 202.532C253.565 203.462 249.018 203.927 244.379 203.927H241.596V1.27914ZM336.79 203.927H334.007C329.182 203.927 324.358 203.462 319.533 202.532C314.894 201.601 310.626 199.926 306.729 197.507C303.018 195.088 299.956 191.739 297.544 187.459C295.131 183.179 293.925 177.596 293.925 170.711V103.161H298.379C303.018 103.161 307.657 103.72 312.296 104.836C316.935 105.767 321.017 107.534 324.543 110.14C328.254 112.559 331.223 115.908 333.45 120.188C335.677 124.468 336.79 129.958 336.79 136.657V203.927ZM339.574 62.4085C339.574 73.5737 337.254 82.692 332.615 89.7632C327.976 96.6484 320.554 100.091 310.347 100.091C306.636 100.091 303.296 99.5328 300.327 98.4163C297.358 97.1137 294.853 95.5319 292.812 93.6711C290.77 91.8102 289.193 89.6702 288.08 87.2511C286.966 84.832 286.41 82.5059 286.41 80.2728C286.41 78.0398 286.502 76.272 286.688 74.9694C286.874 73.6668 287.059 72.5502 287.245 71.6198C288.173 72.7363 289.008 73.5737 289.75 74.132C290.678 74.6902 291.884 74.9694 293.368 74.9694C295.966 74.7833 297.544 73.7598 298.1 71.8989C298.657 69.852 298.935 67.4329 298.935 64.6416V1.55827H302.554C306.451 1.55827 310.533 1.93044 314.801 2.67479C319.069 3.41914 323.059 5.00087 326.77 7.41998C330.481 9.65302 333.543 13.0956 335.955 17.7478C338.368 22.2139 339.574 28.2617 339.574 35.8912V62.4085Z"/>
<path d="M68.0815 47.8938C68.0815 45.8468 67.896 43.7999 67.5248 41.7529C67.3393 39.5199 66.7826 37.566 65.8548 35.8912C65.1125 34.0303 63.9063 32.5417 62.2363 31.4251C60.7517 30.3086 58.6178 29.7504 55.8343 29.7504C52.3086 29.7504 49.3395 30.8669 46.9272 33.0999C45.8138 30.1225 45.2571 27.4243 45.2571 25.0052C45.2571 22.0278 45.721 19.1434 46.6489 16.3521C47.7622 13.3748 49.4323 10.7695 51.6591 8.5365C53.8859 6.30347 56.6693 4.53565 60.0095 3.23304C63.5352 1.74435 67.8032 1 72.8134 1C83.9473 1 92.576 4.34956 98.6997 11.0487C104.823 17.7478 107.885 26.9591 107.885 38.6825V203.927C102.875 203.927 97.9574 203.555 93.1327 202.811C88.4936 202.066 84.2256 200.578 80.3288 198.345C76.6175 195.926 73.6485 192.39 71.4217 187.738C69.1949 183.086 68.0815 176.852 68.0815 169.036V47.8938ZM41.0819 203.927H38.2985C33.4738 203.927 28.8347 203.462 24.3811 202.532C19.9276 201.601 15.9379 199.926 12.4122 197.507C9.07205 195.088 6.28859 191.739 4.06181 187.459C2.0206 183.179 1 177.596 1 170.711V1.27914H5.45355C9.90709 1.27914 14.2679 1.8374 18.5358 2.95392C22.8038 3.88435 26.6079 5.65217 29.9481 8.25738C33.2882 10.6765 35.9789 14.0261 38.0201 18.306C40.0613 22.586 41.0819 28.0756 41.0819 34.7747V203.927ZM134.885 47.8938C134.885 45.8468 134.699 43.7999 134.328 41.7529C134.142 39.5199 133.586 37.566 132.658 35.8912C131.916 34.0303 130.71 32.5417 129.039 31.4251C127.555 30.3086 125.421 29.7504 122.637 29.7504C119.112 29.7504 116.143 30.8669 113.73 33.0999C112.617 30.1225 112.06 27.4243 112.06 25.0052C112.06 22.0278 112.524 19.1434 113.452 16.3521C114.565 13.3748 116.236 10.7695 118.462 8.5365C120.689 6.30347 123.473 4.53565 126.813 3.23304C130.338 1.74435 134.606 1 139.617 1C150.75 1 159.379 4.34956 165.503 11.0487C171.626 17.7478 174.688 26.9591 174.688 38.6825V203.927C169.678 203.927 164.761 203.555 159.936 202.811C155.297 202.066 151.029 200.578 147.132 198.345C143.421 195.926 140.452 192.39 138.225 187.738C135.998 183.086 134.885 176.852 134.885 169.036V47.8938Z"/>
<path d="M224.33 196.186V170.41H185.252L216.697 185.13L185.187 199.849H226.287L226.222 201.812H180.555V199.849L212.065 185.13L180.621 170.41L180.555 168.447H226.287L226.222 196.186H224.33Z"/>
<path d="M224.33 153.596V132.269L192.82 145.68L226.287 159.942V162.036L187.797 145.68L226.287 129.325V153.596H224.33Z"/>
<path d="M188.449 120.88V95.5621L224.656 110.936H239.334V112.899H224.656L188.449 128.273V126.179L221.916 111.917L190.406 98.5061V120.88H188.449Z"/>
<path d="M188.449 89.5317V87.569H226.287V89.5317H188.449Z"/>
<path d="M226.287 58.4797H188.449V56.517H226.287V58.4797ZM226.287 34.2739L206.324 54.4236L188.449 36.3674V33.5543L206.324 51.6105L226.287 31.4608V34.2739Z"/>
<path d="M226.287 2.5677V4.53033H207.368V24.1566H226.287V26.1193H188.449V24.1566H205.411V4.53033H188.449V2.5677H226.287Z"/>
</mask>
<path d="M241.596 1.27914H246.049C250.503 1.27914 254.864 1.8374 259.132 2.95392C263.4 3.88435 267.204 5.65217 270.544 8.25738C273.884 10.6765 276.575 14.0261 278.616 18.306C280.657 22.586 281.678 28.0756 281.678 34.7747V170.711C281.678 177.596 280.564 183.179 278.338 187.459C276.296 191.739 273.513 195.088 269.987 197.507C266.647 199.926 262.657 201.601 258.018 202.532C253.565 203.462 249.018 203.927 244.379 203.927H241.596V1.27914ZM336.79 203.927H334.007C329.182 203.927 324.358 203.462 319.533 202.532C314.894 201.601 310.626 199.926 306.729 197.507C303.018 195.088 299.956 191.739 297.544 187.459C295.131 183.179 293.925 177.596 293.925 170.711V103.161H298.379C303.018 103.161 307.657 103.72 312.296 104.836C316.935 105.767 321.017 107.534 324.543 110.14C328.254 112.559 331.223 115.908 333.45 120.188C335.677 124.468 336.79 129.958 336.79 136.657V203.927ZM339.574 62.4085C339.574 73.5737 337.254 82.692 332.615 89.7632C327.976 96.6484 320.554 100.091 310.347 100.091C306.636 100.091 303.296 99.5328 300.327 98.4163C297.358 97.1137 294.853 95.5319 292.812 93.6711C290.77 91.8102 289.193 89.6702 288.08 87.2511C286.966 84.832 286.41 82.5059 286.41 80.2728C286.41 78.0398 286.502 76.272 286.688 74.9694C286.874 73.6668 287.059 72.5502 287.245 71.6198C288.173 72.7363 289.008 73.5737 289.75 74.132C290.678 74.6902 291.884 74.9694 293.368 74.9694C295.966 74.7833 297.544 73.7598 298.1 71.8989C298.657 69.852 298.935 67.4329 298.935 64.6416V1.55827H302.554C306.451 1.55827 310.533 1.93044 314.801 2.67479C319.069 3.41914 323.059 5.00087 326.77 7.41998C330.481 9.65302 333.543 13.0956 335.955 17.7478C338.368 22.2139 339.574 28.2617 339.574 35.8912V62.4085Z" fill="white"/>
<path d="M68.0815 47.8938C68.0815 45.8468 67.896 43.7999 67.5248 41.7529C67.3393 39.5199 66.7826 37.566 65.8548 35.8912C65.1125 34.0303 63.9063 32.5417 62.2363 31.4251C60.7517 30.3086 58.6178 29.7504 55.8343 29.7504C52.3086 29.7504 49.3395 30.8669 46.9272 33.0999C45.8138 30.1225 45.2571 27.4243 45.2571 25.0052C45.2571 22.0278 45.721 19.1434 46.6489 16.3521C47.7622 13.3748 49.4323 10.7695 51.6591 8.5365C53.8859 6.30347 56.6693 4.53565 60.0095 3.23304C63.5352 1.74435 67.8032 1 72.8134 1C83.9473 1 92.576 4.34956 98.6997 11.0487C104.823 17.7478 107.885 26.9591 107.885 38.6825V203.927C102.875 203.927 97.9574 203.555 93.1327 202.811C88.4936 202.066 84.2256 200.578 80.3288 198.345C76.6175 195.926 73.6485 192.39 71.4217 187.738C69.1949 183.086 68.0815 176.852 68.0815 169.036V47.8938ZM41.0819 203.927H38.2985C33.4738 203.927 28.8347 203.462 24.3811 202.532C19.9276 201.601 15.9379 199.926 12.4122 197.507C9.07205 195.088 6.28859 191.739 4.06181 187.459C2.0206 183.179 1 177.596 1 170.711V1.27914H5.45355C9.90709 1.27914 14.2679 1.8374 18.5358 2.95392C22.8038 3.88435 26.6079 5.65217 29.9481 8.25738C33.2882 10.6765 35.9789 14.0261 38.0201 18.306C40.0613 22.586 41.0819 28.0756 41.0819 34.7747V203.927ZM134.885 47.8938C134.885 45.8468 134.699 43.7999 134.328 41.7529C134.142 39.5199 133.586 37.566 132.658 35.8912C131.916 34.0303 130.71 32.5417 129.039 31.4251C127.555 30.3086 125.421 29.7504 122.637 29.7504C119.112 29.7504 116.143 30.8669 113.73 33.0999C112.617 30.1225 112.06 27.4243 112.06 25.0052C112.06 22.0278 112.524 19.1434 113.452 16.3521C114.565 13.3748 116.236 10.7695 118.462 8.5365C120.689 6.30347 123.473 4.53565 126.813 3.23304C130.338 1.74435 134.606 1 139.617 1C150.75 1 159.379 4.34956 165.503 11.0487C171.626 17.7478 174.688 26.9591 174.688 38.6825V203.927C169.678 203.927 164.761 203.555 159.936 202.811C155.297 202.066 151.029 200.578 147.132 198.345C143.421 195.926 140.452 192.39 138.225 187.738C135.998 183.086 134.885 176.852 134.885 169.036V47.8938Z" fill="white"/>
<path d="M224.33 196.186V170.41H185.252L216.697 185.13L185.187 199.849H226.287L226.222 201.812H180.555V199.849L212.065 185.13L180.621 170.41L180.555 168.447H226.287L226.222 196.186H224.33Z" fill="white"/>
<path d="M224.33 153.596V132.269L192.82 145.68L226.287 159.942V162.036L187.797 145.68L226.287 129.325V153.596H224.33Z" fill="white"/>
<path d="M188.449 120.88V95.5621L224.656 110.936H239.334V112.899H224.656L188.449 128.273V126.179L221.916 111.917L190.406 98.5061V120.88H188.449Z" fill="white"/>
<path d="M188.449 89.5317V87.569H226.287V89.5317H188.449Z" fill="white"/>
<path d="M226.287 58.4797H188.449V56.517H226.287V58.4797ZM226.287 34.2739L206.324 54.4236L188.449 36.3674V33.5543L206.324 51.6105L226.287 31.4608V34.2739Z" fill="white"/>
<path d="M226.287 2.5677V4.53033H207.368V24.1566H226.287V26.1193H188.449V24.1566H205.411V4.53033H188.449V2.5677H226.287Z" fill="white"/>
<path d="M241.596 1.27914H246.049C250.503 1.27914 254.864 1.8374 259.132 2.95392C263.4 3.88435 267.204 5.65217 270.544 8.25738C273.884 10.6765 276.575 14.0261 278.616 18.306C280.657 22.586 281.678 28.0756 281.678 34.7747V170.711C281.678 177.596 280.564 183.179 278.338 187.459C276.296 191.739 273.513 195.088 269.987 197.507C266.647 199.926 262.657 201.601 258.018 202.532C253.565 203.462 249.018 203.927 244.379 203.927H241.596V1.27914ZM336.79 203.927H334.007C329.182 203.927 324.358 203.462 319.533 202.532C314.894 201.601 310.626 199.926 306.729 197.507C303.018 195.088 299.956 191.739 297.544 187.459C295.131 183.179 293.925 177.596 293.925 170.711V103.161H298.379C303.018 103.161 307.657 103.72 312.296 104.836C316.935 105.767 321.017 107.534 324.543 110.14C328.254 112.559 331.223 115.908 333.45 120.188C335.677 124.468 336.79 129.958 336.79 136.657V203.927ZM339.574 62.4085C339.574 73.5737 337.254 82.692 332.615 89.7632C327.976 96.6484 320.554 100.091 310.347 100.091C306.636 100.091 303.296 99.5328 300.327 98.4163C297.358 97.1137 294.853 95.5319 292.812 93.6711C290.77 91.8102 289.193 89.6702 288.08 87.2511C286.966 84.832 286.41 82.5059 286.41 80.2728C286.41 78.0398 286.502 76.272 286.688 74.9694C286.874 73.6668 287.059 72.5502 287.245 71.6198C288.173 72.7363 289.008 73.5737 289.75 74.132C290.678 74.6902 291.884 74.9694 293.368 74.9694C295.966 74.7833 297.544 73.7598 298.1 71.8989C298.657 69.852 298.935 67.4329 298.935 64.6416V1.55827H302.554C306.451 1.55827 310.533 1.93044 314.801 2.67479C319.069 3.41914 323.059 5.00087 326.77 7.41998C330.481 9.65302 333.543 13.0956 335.955 17.7478C338.368 22.2139 339.574 28.2617 339.574 35.8912V62.4085Z" stroke="white" stroke-width="2" mask="url(#path-1-outside-1_2119_11)"/>
<path d="M68.0815 47.8938C68.0815 45.8468 67.896 43.7999 67.5248 41.7529C67.3393 39.5199 66.7826 37.566 65.8548 35.8912C65.1125 34.0303 63.9063 32.5417 62.2363 31.4251C60.7517 30.3086 58.6178 29.7504 55.8343 29.7504C52.3086 29.7504 49.3395 30.8669 46.9272 33.0999C45.8138 30.1225 45.2571 27.4243 45.2571 25.0052C45.2571 22.0278 45.721 19.1434 46.6489 16.3521C47.7622 13.3748 49.4323 10.7695 51.6591 8.5365C53.8859 6.30347 56.6693 4.53565 60.0095 3.23304C63.5352 1.74435 67.8032 1 72.8134 1C83.9473 1 92.576 4.34956 98.6997 11.0487C104.823 17.7478 107.885 26.9591 107.885 38.6825V203.927C102.875 203.927 97.9574 203.555 93.1327 202.811C88.4936 202.066 84.2256 200.578 80.3288 198.345C76.6175 195.926 73.6485 192.39 71.4217 187.738C69.1949 183.086 68.0815 176.852 68.0815 169.036V47.8938ZM41.0819 203.927H38.2985C33.4738 203.927 28.8347 203.462 24.3811 202.532C19.9276 201.601 15.9379 199.926 12.4122 197.507C9.07205 195.088 6.28859 191.739 4.06181 187.459C2.0206 183.179 1 177.596 1 170.711V1.27914H5.45355C9.90709 1.27914 14.2679 1.8374 18.5358 2.95392C22.8038 3.88435 26.6079 5.65217 29.9481 8.25738C33.2882 10.6765 35.9789 14.0261 38.0201 18.306C40.0613 22.586 41.0819 28.0756 41.0819 34.7747V203.927ZM134.885 47.8938C134.885 45.8468 134.699 43.7999 134.328 41.7529C134.142 39.5199 133.586 37.566 132.658 35.8912C131.916 34.0303 130.71 32.5417 129.039 31.4251C127.555 30.3086 125.421 29.7504 122.637 29.7504C119.112 29.7504 116.143 30.8669 113.73 33.0999C112.617 30.1225 112.06 27.4243 112.06 25.0052C112.06 22.0278 112.524 19.1434 113.452 16.3521C114.565 13.3748 116.236 10.7695 118.462 8.5365C120.689 6.30347 123.473 4.53565 126.813 3.23304C130.338 1.74435 134.606 1 139.617 1C150.75 1 159.379 4.34956 165.503 11.0487C171.626 17.7478 174.688 26.9591 174.688 38.6825V203.927C169.678 203.927 164.761 203.555 159.936 202.811C155.297 202.066 151.029 200.578 147.132 198.345C143.421 195.926 140.452 192.39 138.225 187.738C135.998 183.086 134.885 176.852 134.885 169.036V47.8938Z" stroke="white" stroke-width="2" mask="url(#path-1-outside-1_2119_11)"/>
<path d="M224.33 196.186V170.41H185.252L216.697 185.13L185.187 199.849H226.287L226.222 201.812H180.555V199.849L212.065 185.13L180.621 170.41L180.555 168.447H226.287L226.222 196.186H224.33Z" stroke="white" stroke-width="2" mask="url(#path-1-outside-1_2119_11)"/>
<path d="M224.33 153.596V132.269L192.82 145.68L226.287 159.942V162.036L187.797 145.68L226.287 129.325V153.596H224.33Z" stroke="white" stroke-width="2" mask="url(#path-1-outside-1_2119_11)"/>
<path d="M188.449 120.88V95.5621L224.656 110.936H239.334V112.899H224.656L188.449 128.273V126.179L221.916 111.917L190.406 98.5061V120.88H188.449Z" stroke="white" stroke-width="2" mask="url(#path-1-outside-1_2119_11)"/>
<path d="M188.449 89.5317V87.569H226.287V89.5317H188.449Z" stroke="white" stroke-width="2" mask="url(#path-1-outside-1_2119_11)"/>
<path d="M226.287 58.4797H188.449V56.517H226.287V58.4797ZM226.287 34.2739L206.324 54.4236L188.449 36.3674V33.5543L206.324 51.6105L226.287 31.4608V34.2739Z" stroke="white" stroke-width="2" mask="url(#path-1-outside-1_2119_11)"/>
<path d="M226.287 2.5677V4.53033H207.368V24.1566H226.287V26.1193H188.449V24.1566H205.411V4.53033H188.449V2.5677H226.287Z" stroke="white" stroke-width="2" mask="url(#path-1-outside-1_2119_11)"/>
<path d="M151.429 252.256L153.436 251.553C153.445 251.553 153.465 251.636 153.494 251.802C153.533 251.968 153.597 252.183 153.685 252.447C153.782 252.71 153.909 253.003 154.065 253.326C154.222 253.648 154.441 253.97 154.725 254.292C155.018 254.615 155.354 254.908 155.735 255.171C156.575 255.767 157.684 256.065 159.061 256.065C160.438 256.065 161.463 255.689 162.137 254.937C162.811 254.185 163.147 253.262 163.147 252.168C163.147 251.065 162.933 250.201 162.503 249.576C162.083 248.941 161.341 248.404 160.276 247.964C159.964 247.837 159.554 247.686 159.046 247.51L157.654 247.027C155.242 246.226 153.621 245.201 152.791 243.951C152.215 243.081 151.927 242.066 151.927 240.904C151.927 239.527 152.474 238.243 153.567 237.051C154.085 236.504 154.744 236.06 155.545 235.718C156.346 235.376 157.186 235.205 158.064 235.205C158.953 235.205 159.734 235.328 160.408 235.572C161.092 235.806 161.639 236.099 162.049 236.451C162.469 236.802 162.845 237.207 163.177 237.666C163.509 238.125 163.748 238.536 163.895 238.897L164.319 239.981C164.446 240.323 164.524 240.523 164.554 240.581L162.649 241.314C162.63 241.265 162.581 241.114 162.503 240.86C162.435 240.596 162.371 240.381 162.312 240.215C162.264 240.049 162.171 239.82 162.034 239.527C161.907 239.234 161.771 238.99 161.624 238.794C161.487 238.589 161.302 238.37 161.067 238.135C160.843 237.891 160.599 237.696 160.335 237.549C159.69 237.198 158.963 237.022 158.152 237.022C156.951 237.022 155.975 237.378 155.223 238.091C154.471 238.794 154.095 239.732 154.095 240.904C154.095 242.183 154.427 243.081 155.091 243.599C155.452 243.882 155.755 244.087 155.999 244.214C156.253 244.341 156.546 244.468 156.878 244.595C157.22 244.712 157.469 244.805 157.625 244.873C157.781 244.932 158.089 245.03 158.548 245.166L159.778 245.547C162.044 246.241 163.602 247.271 164.451 248.638C165.027 249.566 165.315 250.689 165.315 252.007C165.315 252.964 165.013 253.965 164.407 255.01C163.655 256.338 162.513 257.217 160.979 257.647C160.403 257.803 159.729 257.881 158.958 257.881C158.196 257.881 157.444 257.779 156.702 257.574C155.96 257.369 155.335 257.1 154.827 256.768C154.329 256.436 153.875 256.07 153.465 255.669C153.064 255.269 152.742 254.869 152.498 254.468C152.049 253.736 151.731 253.101 151.546 252.564L151.429 252.256ZM165.257 237.271V235.454H180.082V237.271H173.754V257.647H171.586V237.271H165.257ZM180.419 235.454H182.675L188.271 245.899L193.866 235.454H196.122L189.355 247.979V257.647H187.187V247.979L180.419 235.454ZM197.866 257.647V235.454H200.034V255.567H209.878V257.647H197.866ZM211.621 257.647V235.454H223.648V237.271H213.789V245.078H220.865V246.895H213.789V255.699H224.204V257.647H211.621Z" fill="white"/>
<line x1="234.843" y1="242.647" x2="358.843" y2="242.647" stroke="white" stroke-width="4"/>
<line x1="19.8428" y1="242.647" x2="138.843" y2="242.647" stroke="white" stroke-width="4"/>
</svg>
