<svg width="46" height="46" viewBox="0 0 46 46" fill="none" xmlns="http://www.w3.org/2000/svg">
<rect x="0.25" y="0.25" width="45.5" height="45.5" rx="9.75" stroke="black" stroke-width="0.5"/>
<path d="M28.6257 9H24.1257L24.1257 25.5C24.1257 26 24.6257 32.5 19.6257 32.5C16.6257 32.5 15.6712 29 15.6257 28.5C15.2859 24.7613 19.1257 24 21.1257 24.5V19.5C13.9257 18.3 11.459 23.6667 11.1257 26.5C9.92569 35.7 17.626 37.5 21.1257 37C26.626 36.5 29.126 32 29.1257 28V18.5C31.1257 20.5 34.2924 20.6667 35.6257 20.5V15.5C30.0257 15.1 28.6257 11 28.6257 9Z" stroke="black" stroke-width="0.5"/>
</svg>
