<svg width="620" height="620" viewBox="0 0 620 620" fill="none" xmlns="http://www.w3.org/2000/svg">
<circle cx="309.817" cy="309.817" r="307.317" stroke="white" stroke-width="5"/>
<mask id="path-2-outside-1_175_3" maskUnits="userSpaceOnUse" x="141.157" y="210.353" width="341" height="205" fill="black">
<rect fill="white" x="141.157" y="210.353" width="341" height="205"/>
<path d="M382.753 211.632H387.207C391.66 211.632 396.021 212.19 400.289 213.307C404.557 214.237 408.361 216.005 411.701 218.61C415.041 221.03 417.732 224.379 419.773 228.659C421.814 232.939 422.835 238.429 422.835 245.128V381.064C422.835 387.949 421.722 393.532 419.495 397.812C417.454 402.092 414.67 405.441 411.144 407.86C407.804 410.279 403.815 411.954 399.176 412.885C394.722 413.815 390.176 414.28 385.537 414.28H382.753V211.632ZM477.948 414.28H475.164C470.339 414.28 465.515 413.815 460.69 412.885C456.051 411.954 451.783 410.279 447.886 407.86C444.175 405.441 441.113 402.092 438.701 397.812C436.288 393.532 435.082 387.949 435.082 381.064V313.514H439.536C444.175 313.514 448.814 314.073 453.453 315.189C458.092 316.12 462.175 317.888 465.7 320.493C469.412 322.912 472.381 326.261 474.607 330.541C476.834 334.821 477.948 340.311 477.948 347.01V414.28ZM480.731 272.762C480.731 283.927 478.412 293.045 473.772 300.116C469.133 307.001 461.711 310.444 451.505 310.444C447.793 310.444 444.453 309.886 441.484 308.769C438.515 307.467 436.01 305.885 433.969 304.024C431.928 302.163 430.35 300.023 429.237 297.604C428.124 295.185 427.567 292.859 427.567 290.626C427.567 288.393 427.66 286.625 427.845 285.322C428.031 284.02 428.216 282.903 428.402 281.973C429.33 283.089 430.165 283.927 430.907 284.485C431.835 285.043 433.041 285.322 434.526 285.322C437.123 285.136 438.701 284.113 439.257 282.252C439.814 280.205 440.092 277.786 440.092 274.995V211.911H443.711C447.608 211.911 451.69 212.283 455.958 213.028C460.226 213.772 464.216 215.354 467.927 217.773C471.638 220.006 474.7 223.449 477.113 228.101C479.525 232.567 480.731 238.615 480.731 246.244V272.762Z"/>
<path d="M209.239 258.247C209.239 256.2 209.053 254.153 208.682 252.106C208.497 249.873 207.94 247.919 207.012 246.244C206.27 244.383 205.064 242.895 203.393 241.778C201.909 240.662 199.775 240.103 196.992 240.103C193.466 240.103 190.497 241.22 188.084 243.453C186.971 240.476 186.414 237.777 186.414 235.358C186.414 232.381 186.878 229.496 187.806 226.705C188.919 223.728 190.59 221.123 192.816 218.89C195.043 216.657 197.827 214.889 201.167 213.586C204.692 212.097 208.96 211.353 213.971 211.353C225.105 211.353 233.733 214.703 239.857 221.402C245.981 228.101 249.042 237.312 249.042 249.036V414.28C244.032 414.28 239.115 413.908 234.29 413.164C229.651 412.419 225.383 410.931 221.486 408.698C217.775 406.279 214.806 402.743 212.579 398.091C210.352 393.439 209.239 387.205 209.239 379.389V258.247ZM182.239 414.28H179.456C174.631 414.28 169.992 413.815 165.538 412.885C161.085 411.954 157.095 410.279 153.569 407.86C150.229 405.441 147.446 402.092 145.219 397.812C143.178 393.532 142.157 387.949 142.157 381.064V211.632H146.611C151.064 211.632 155.425 212.19 159.693 213.307C163.961 214.237 167.765 216.005 171.105 218.61C174.445 221.03 177.136 224.379 179.177 228.659C181.219 232.939 182.239 238.429 182.239 245.128V414.28ZM276.042 258.247C276.042 256.2 275.856 254.153 275.485 252.106C275.3 249.873 274.743 247.919 273.815 246.244C273.073 244.383 271.867 242.895 270.197 241.778C268.712 240.662 266.578 240.103 263.795 240.103C260.269 240.103 257.3 241.22 254.888 243.453C253.774 240.476 253.218 237.777 253.218 235.358C253.218 232.381 253.681 229.496 254.609 226.705C255.723 223.728 257.393 221.123 259.62 218.89C261.846 216.657 264.63 214.889 267.97 213.586C271.496 212.097 275.764 211.353 280.774 211.353C291.908 211.353 300.536 214.703 306.66 221.402C312.784 228.101 315.846 237.312 315.846 249.036V414.28C310.835 414.28 305.918 413.908 301.093 413.164C296.454 412.419 292.186 410.931 288.289 408.698C284.578 406.279 281.609 402.743 279.382 398.091C277.155 393.439 276.042 387.205 276.042 379.389V258.247Z"/>
<path d="M365.487 406.539V380.763H326.41L357.854 395.483L326.344 410.202H367.444L367.379 412.165H321.713V410.202L353.222 395.483L321.778 380.763L321.713 378.8H367.444L367.379 406.539H365.487Z"/>
<path d="M365.487 363.949V342.622L333.977 356.033L367.444 370.295V372.389L328.954 356.033L367.444 339.678V363.949H365.487Z"/>
<path d="M329.606 331.233V305.915L365.813 321.289H380.492V323.252H365.813L329.606 338.626V336.532L363.073 322.27L331.563 308.859V331.233H329.606Z"/>
<path d="M329.606 299.885V297.922H367.444V299.885H329.606Z"/>
<path d="M367.444 268.833H329.606V266.87H367.444V268.833ZM367.444 244.627L347.481 264.777L329.606 246.72V243.907L347.481 261.963L367.444 241.814V244.627Z"/>
<path d="M367.444 212.921V214.883H348.525V234.51H367.444V236.472H329.606V234.51H346.568V214.883H329.606V212.921H367.444Z"/>
</mask>
<path d="M382.753 211.632H387.207C391.66 211.632 396.021 212.19 400.289 213.307C404.557 214.237 408.361 216.005 411.701 218.61C415.041 221.03 417.732 224.379 419.773 228.659C421.814 232.939 422.835 238.429 422.835 245.128V381.064C422.835 387.949 421.722 393.532 419.495 397.812C417.454 402.092 414.67 405.441 411.144 407.86C407.804 410.279 403.815 411.954 399.176 412.885C394.722 413.815 390.176 414.28 385.537 414.28H382.753V211.632ZM477.948 414.28H475.164C470.339 414.28 465.515 413.815 460.69 412.885C456.051 411.954 451.783 410.279 447.886 407.86C444.175 405.441 441.113 402.092 438.701 397.812C436.288 393.532 435.082 387.949 435.082 381.064V313.514H439.536C444.175 313.514 448.814 314.073 453.453 315.189C458.092 316.12 462.175 317.888 465.7 320.493C469.412 322.912 472.381 326.261 474.607 330.541C476.834 334.821 477.948 340.311 477.948 347.01V414.28ZM480.731 272.762C480.731 283.927 478.412 293.045 473.772 300.116C469.133 307.001 461.711 310.444 451.505 310.444C447.793 310.444 444.453 309.886 441.484 308.769C438.515 307.467 436.01 305.885 433.969 304.024C431.928 302.163 430.35 300.023 429.237 297.604C428.124 295.185 427.567 292.859 427.567 290.626C427.567 288.393 427.66 286.625 427.845 285.322C428.031 284.02 428.216 282.903 428.402 281.973C429.33 283.089 430.165 283.927 430.907 284.485C431.835 285.043 433.041 285.322 434.526 285.322C437.123 285.136 438.701 284.113 439.257 282.252C439.814 280.205 440.092 277.786 440.092 274.995V211.911H443.711C447.608 211.911 451.69 212.283 455.958 213.028C460.226 213.772 464.216 215.354 467.927 217.773C471.638 220.006 474.7 223.449 477.113 228.101C479.525 232.567 480.731 238.615 480.731 246.244V272.762Z" fill="white"/>
<path d="M209.239 258.247C209.239 256.2 209.053 254.153 208.682 252.106C208.497 249.873 207.94 247.919 207.012 246.244C206.27 244.383 205.064 242.895 203.393 241.778C201.909 240.662 199.775 240.103 196.992 240.103C193.466 240.103 190.497 241.22 188.084 243.453C186.971 240.476 186.414 237.777 186.414 235.358C186.414 232.381 186.878 229.496 187.806 226.705C188.919 223.728 190.59 221.123 192.816 218.89C195.043 216.657 197.827 214.889 201.167 213.586C204.692 212.097 208.96 211.353 213.971 211.353C225.105 211.353 233.733 214.703 239.857 221.402C245.981 228.101 249.042 237.312 249.042 249.036V414.28C244.032 414.28 239.115 413.908 234.29 413.164C229.651 412.419 225.383 410.931 221.486 408.698C217.775 406.279 214.806 402.743 212.579 398.091C210.352 393.439 209.239 387.205 209.239 379.389V258.247ZM182.239 414.28H179.456C174.631 414.28 169.992 413.815 165.538 412.885C161.085 411.954 157.095 410.279 153.569 407.86C150.229 405.441 147.446 402.092 145.219 397.812C143.178 393.532 142.157 387.949 142.157 381.064V211.632H146.611C151.064 211.632 155.425 212.19 159.693 213.307C163.961 214.237 167.765 216.005 171.105 218.61C174.445 221.03 177.136 224.379 179.177 228.659C181.219 232.939 182.239 238.429 182.239 245.128V414.28ZM276.042 258.247C276.042 256.2 275.856 254.153 275.485 252.106C275.3 249.873 274.743 247.919 273.815 246.244C273.073 244.383 271.867 242.895 270.197 241.778C268.712 240.662 266.578 240.103 263.795 240.103C260.269 240.103 257.3 241.22 254.888 243.453C253.774 240.476 253.218 237.777 253.218 235.358C253.218 232.381 253.681 229.496 254.609 226.705C255.723 223.728 257.393 221.123 259.62 218.89C261.846 216.657 264.63 214.889 267.97 213.586C271.496 212.097 275.764 211.353 280.774 211.353C291.908 211.353 300.536 214.703 306.66 221.402C312.784 228.101 315.846 237.312 315.846 249.036V414.28C310.835 414.28 305.918 413.908 301.093 413.164C296.454 412.419 292.186 410.931 288.289 408.698C284.578 406.279 281.609 402.743 279.382 398.091C277.155 393.439 276.042 387.205 276.042 379.389V258.247Z" fill="white"/>
<path d="M365.487 406.539V380.763H326.41L357.854 395.483L326.344 410.202H367.444L367.379 412.165H321.713V410.202L353.222 395.483L321.778 380.763L321.713 378.8H367.444L367.379 406.539H365.487Z" fill="white"/>
<path d="M365.487 363.949V342.622L333.977 356.033L367.444 370.295V372.389L328.954 356.033L367.444 339.678V363.949H365.487Z" fill="white"/>
<path d="M329.606 331.233V305.915L365.813 321.289H380.492V323.252H365.813L329.606 338.626V336.532L363.073 322.27L331.563 308.859V331.233H329.606Z" fill="white"/>
<path d="M329.606 299.885V297.922H367.444V299.885H329.606Z" fill="white"/>
<path d="M367.444 268.833H329.606V266.87H367.444V268.833ZM367.444 244.627L347.481 264.777L329.606 246.72V243.907L347.481 261.963L367.444 241.814V244.627Z" fill="white"/>
<path d="M367.444 212.921V214.883H348.525V234.51H367.444V236.472H329.606V234.51H346.568V214.883H329.606V212.921H367.444Z" fill="white"/>
<path d="M382.753 211.632H387.207C391.66 211.632 396.021 212.19 400.289 213.307C404.557 214.237 408.361 216.005 411.701 218.61C415.041 221.03 417.732 224.379 419.773 228.659C421.814 232.939 422.835 238.429 422.835 245.128V381.064C422.835 387.949 421.722 393.532 419.495 397.812C417.454 402.092 414.67 405.441 411.144 407.86C407.804 410.279 403.815 411.954 399.176 412.885C394.722 413.815 390.176 414.28 385.537 414.28H382.753V211.632ZM477.948 414.28H475.164C470.339 414.28 465.515 413.815 460.69 412.885C456.051 411.954 451.783 410.279 447.886 407.86C444.175 405.441 441.113 402.092 438.701 397.812C436.288 393.532 435.082 387.949 435.082 381.064V313.514H439.536C444.175 313.514 448.814 314.073 453.453 315.189C458.092 316.12 462.175 317.888 465.7 320.493C469.412 322.912 472.381 326.261 474.607 330.541C476.834 334.821 477.948 340.311 477.948 347.01V414.28ZM480.731 272.762C480.731 283.927 478.412 293.045 473.772 300.116C469.133 307.001 461.711 310.444 451.505 310.444C447.793 310.444 444.453 309.886 441.484 308.769C438.515 307.467 436.01 305.885 433.969 304.024C431.928 302.163 430.35 300.023 429.237 297.604C428.124 295.185 427.567 292.859 427.567 290.626C427.567 288.393 427.66 286.625 427.845 285.322C428.031 284.02 428.216 282.903 428.402 281.973C429.33 283.089 430.165 283.927 430.907 284.485C431.835 285.043 433.041 285.322 434.526 285.322C437.123 285.136 438.701 284.113 439.257 282.252C439.814 280.205 440.092 277.786 440.092 274.995V211.911H443.711C447.608 211.911 451.69 212.283 455.958 213.028C460.226 213.772 464.216 215.354 467.927 217.773C471.638 220.006 474.7 223.449 477.113 228.101C479.525 232.567 480.731 238.615 480.731 246.244V272.762Z" stroke="white" stroke-width="2" mask="url(#path-2-outside-1_175_3)"/>
<path d="M209.239 258.247C209.239 256.2 209.053 254.153 208.682 252.106C208.497 249.873 207.94 247.919 207.012 246.244C206.27 244.383 205.064 242.895 203.393 241.778C201.909 240.662 199.775 240.103 196.992 240.103C193.466 240.103 190.497 241.22 188.084 243.453C186.971 240.476 186.414 237.777 186.414 235.358C186.414 232.381 186.878 229.496 187.806 226.705C188.919 223.728 190.59 221.123 192.816 218.89C195.043 216.657 197.827 214.889 201.167 213.586C204.692 212.097 208.96 211.353 213.971 211.353C225.105 211.353 233.733 214.703 239.857 221.402C245.981 228.101 249.042 237.312 249.042 249.036V414.28C244.032 414.28 239.115 413.908 234.29 413.164C229.651 412.419 225.383 410.931 221.486 408.698C217.775 406.279 214.806 402.743 212.579 398.091C210.352 393.439 209.239 387.205 209.239 379.389V258.247ZM182.239 414.28H179.456C174.631 414.28 169.992 413.815 165.538 412.885C161.085 411.954 157.095 410.279 153.569 407.86C150.229 405.441 147.446 402.092 145.219 397.812C143.178 393.532 142.157 387.949 142.157 381.064V211.632H146.611C151.064 211.632 155.425 212.19 159.693 213.307C163.961 214.237 167.765 216.005 171.105 218.61C174.445 221.03 177.136 224.379 179.177 228.659C181.219 232.939 182.239 238.429 182.239 245.128V414.28ZM276.042 258.247C276.042 256.2 275.856 254.153 275.485 252.106C275.3 249.873 274.743 247.919 273.815 246.244C273.073 244.383 271.867 242.895 270.197 241.778C268.712 240.662 266.578 240.103 263.795 240.103C260.269 240.103 257.3 241.22 254.888 243.453C253.774 240.476 253.218 237.777 253.218 235.358C253.218 232.381 253.681 229.496 254.609 226.705C255.723 223.728 257.393 221.123 259.62 218.89C261.846 216.657 264.63 214.889 267.97 213.586C271.496 212.097 275.764 211.353 280.774 211.353C291.908 211.353 300.536 214.703 306.66 221.402C312.784 228.101 315.846 237.312 315.846 249.036V414.28C310.835 414.28 305.918 413.908 301.093 413.164C296.454 412.419 292.186 410.931 288.289 408.698C284.578 406.279 281.609 402.743 279.382 398.091C277.155 393.439 276.042 387.205 276.042 379.389V258.247Z" stroke="white" stroke-width="2" mask="url(#path-2-outside-1_175_3)"/>
<path d="M365.487 406.539V380.763H326.41L357.854 395.483L326.344 410.202H367.444L367.379 412.165H321.713V410.202L353.222 395.483L321.778 380.763L321.713 378.8H367.444L367.379 406.539H365.487Z" stroke="white" stroke-width="2" mask="url(#path-2-outside-1_175_3)"/>
<path d="M365.487 363.949V342.622L333.977 356.033L367.444 370.295V372.389L328.954 356.033L367.444 339.678V363.949H365.487Z" stroke="white" stroke-width="2" mask="url(#path-2-outside-1_175_3)"/>
<path d="M329.606 331.233V305.915L365.813 321.289H380.492V323.252H365.813L329.606 338.626V336.532L363.073 322.27L331.563 308.859V331.233H329.606Z" stroke="white" stroke-width="2" mask="url(#path-2-outside-1_175_3)"/>
<path d="M329.606 299.885V297.922H367.444V299.885H329.606Z" stroke="white" stroke-width="2" mask="url(#path-2-outside-1_175_3)"/>
<path d="M367.444 268.833H329.606V266.87H367.444V268.833ZM367.444 244.627L347.481 264.777L329.606 246.72V243.907L347.481 261.963L367.444 241.814V244.627Z" stroke="white" stroke-width="2" mask="url(#path-2-outside-1_175_3)"/>
<path d="M367.444 212.921V214.883H348.525V234.51H367.444V236.472H329.606V234.51H346.568V214.883H329.606V212.921H367.444Z" stroke="white" stroke-width="2" mask="url(#path-2-outside-1_175_3)"/>
<mask id="path-3-outside-2_175_3" maskUnits="userSpaceOnUse" x="291" y="444" width="76" height="26" fill="black">
<rect fill="white" x="291" y="444" width="76" height="26"/>
<path d="M292.586 462.609L294.593 461.906C294.603 461.906 294.622 461.989 294.651 462.155C294.69 462.321 294.754 462.536 294.842 462.8C294.939 463.063 295.066 463.356 295.223 463.679C295.379 464.001 295.599 464.323 295.882 464.646C296.175 464.968 296.512 465.261 296.893 465.524C297.732 466.12 298.841 466.418 300.218 466.418C301.595 466.418 302.62 466.042 303.294 465.29C303.968 464.538 304.305 463.615 304.305 462.521C304.305 461.418 304.09 460.554 303.66 459.929C303.24 459.294 302.498 458.757 301.434 458.317C301.121 458.19 300.711 458.039 300.203 457.863L298.812 457.38C296.399 456.579 294.778 455.554 293.948 454.304C293.372 453.435 293.084 452.419 293.084 451.257C293.084 449.88 293.631 448.596 294.725 447.404C295.242 446.857 295.901 446.413 296.702 446.071C297.503 445.729 298.343 445.559 299.222 445.559C300.11 445.559 300.892 445.681 301.565 445.925C302.249 446.159 302.796 446.452 303.206 446.804C303.626 447.155 304.002 447.561 304.334 448.02C304.666 448.479 304.905 448.889 305.052 449.25L305.477 450.334C305.604 450.676 305.682 450.876 305.711 450.935L303.807 451.667C303.787 451.618 303.738 451.467 303.66 451.213C303.592 450.949 303.528 450.734 303.47 450.568C303.421 450.402 303.328 450.173 303.191 449.88C303.064 449.587 302.928 449.343 302.781 449.147C302.645 448.942 302.459 448.723 302.225 448.488C302 448.244 301.756 448.049 301.492 447.902C300.848 447.551 300.12 447.375 299.31 447.375C298.108 447.375 297.132 447.731 296.38 448.444C295.628 449.147 295.252 450.085 295.252 451.257C295.252 452.536 295.584 453.435 296.248 453.952C296.609 454.235 296.912 454.44 297.156 454.567C297.41 454.694 297.703 454.821 298.035 454.948C298.377 455.065 298.626 455.158 298.782 455.227C298.938 455.285 299.246 455.383 299.705 455.52L300.936 455.9C303.201 456.594 304.759 457.624 305.608 458.991C306.185 459.919 306.473 461.042 306.473 462.36C306.473 463.317 306.17 464.318 305.564 465.363C304.812 466.691 303.67 467.57 302.137 468C301.561 468.156 300.887 468.234 300.115 468.234C299.354 468.234 298.602 468.132 297.859 467.927C297.117 467.722 296.492 467.453 295.984 467.121C295.486 466.789 295.032 466.423 294.622 466.022C294.222 465.622 293.899 465.222 293.655 464.821C293.206 464.089 292.889 463.454 292.703 462.917L292.586 462.609ZM306.415 447.624V445.808H321.239V447.624H314.911V468H312.743V447.624H306.415ZM321.576 445.808H323.832L329.428 456.252L335.024 445.808H337.279L330.512 458.332V468H328.344V458.332L321.576 445.808ZM339.023 468V445.808H341.191V465.92H351.035V468H339.023ZM352.779 468V445.808H364.805V447.624H354.947V455.432H362.022V457.248H354.947V466.052H365.362V468H352.779Z"/>
</mask>
<path d="M292.586 462.609L294.593 461.906C294.603 461.906 294.622 461.989 294.651 462.155C294.69 462.321 294.754 462.536 294.842 462.8C294.939 463.063 295.066 463.356 295.223 463.679C295.379 464.001 295.599 464.323 295.882 464.646C296.175 464.968 296.512 465.261 296.893 465.524C297.732 466.12 298.841 466.418 300.218 466.418C301.595 466.418 302.62 466.042 303.294 465.29C303.968 464.538 304.305 463.615 304.305 462.521C304.305 461.418 304.09 460.554 303.66 459.929C303.24 459.294 302.498 458.757 301.434 458.317C301.121 458.19 300.711 458.039 300.203 457.863L298.812 457.38C296.399 456.579 294.778 455.554 293.948 454.304C293.372 453.435 293.084 452.419 293.084 451.257C293.084 449.88 293.631 448.596 294.725 447.404C295.242 446.857 295.901 446.413 296.702 446.071C297.503 445.729 298.343 445.559 299.222 445.559C300.11 445.559 300.892 445.681 301.565 445.925C302.249 446.159 302.796 446.452 303.206 446.804C303.626 447.155 304.002 447.561 304.334 448.02C304.666 448.479 304.905 448.889 305.052 449.25L305.477 450.334C305.604 450.676 305.682 450.876 305.711 450.935L303.807 451.667C303.787 451.618 303.738 451.467 303.66 451.213C303.592 450.949 303.528 450.734 303.47 450.568C303.421 450.402 303.328 450.173 303.191 449.88C303.064 449.587 302.928 449.343 302.781 449.147C302.645 448.942 302.459 448.723 302.225 448.488C302 448.244 301.756 448.049 301.492 447.902C300.848 447.551 300.12 447.375 299.31 447.375C298.108 447.375 297.132 447.731 296.38 448.444C295.628 449.147 295.252 450.085 295.252 451.257C295.252 452.536 295.584 453.435 296.248 453.952C296.609 454.235 296.912 454.44 297.156 454.567C297.41 454.694 297.703 454.821 298.035 454.948C298.377 455.065 298.626 455.158 298.782 455.227C298.938 455.285 299.246 455.383 299.705 455.52L300.936 455.9C303.201 456.594 304.759 457.624 305.608 458.991C306.185 459.919 306.473 461.042 306.473 462.36C306.473 463.317 306.17 464.318 305.564 465.363C304.812 466.691 303.67 467.57 302.137 468C301.561 468.156 300.887 468.234 300.115 468.234C299.354 468.234 298.602 468.132 297.859 467.927C297.117 467.722 296.492 467.453 295.984 467.121C295.486 466.789 295.032 466.423 294.622 466.022C294.222 465.622 293.899 465.222 293.655 464.821C293.206 464.089 292.889 463.454 292.703 462.917L292.586 462.609ZM306.415 447.624V445.808H321.239V447.624H314.911V468H312.743V447.624H306.415ZM321.576 445.808H323.832L329.428 456.252L335.024 445.808H337.279L330.512 458.332V468H328.344V458.332L321.576 445.808ZM339.023 468V445.808H341.191V465.92H351.035V468H339.023ZM352.779 468V445.808H364.805V447.624H354.947V455.432H362.022V457.248H354.947V466.052H365.362V468H352.779Z" fill="white"/>
<path d="M292.586 462.609L292.255 461.666L291.286 462.005L291.651 462.965L292.586 462.609ZM294.593 461.906V460.906H294.423L294.262 460.962L294.593 461.906ZM294.651 462.155L293.667 462.329L293.671 462.357L293.678 462.384L294.651 462.155ZM294.842 462.8L293.893 463.116L293.898 463.132L293.904 463.147L294.842 462.8ZM295.882 464.646L295.131 465.306L295.136 465.312L295.142 465.318L295.882 464.646ZM296.893 465.524L297.471 464.709L297.462 464.702L296.893 465.524ZM303.66 459.929L302.826 460.48L302.831 460.488L302.836 460.495L303.66 459.929ZM301.434 458.317L301.815 457.393L301.81 457.391L301.434 458.317ZM300.203 457.863L299.875 458.808L299.876 458.808L300.203 457.863ZM298.812 457.38L299.14 456.435L299.127 456.431L298.812 457.38ZM293.948 454.304L293.115 454.856L293.115 454.857L293.948 454.304ZM294.725 447.404L293.998 446.717L293.993 446.722L293.988 446.728L294.725 447.404ZM301.565 445.925L301.225 446.865L301.233 446.868L301.241 446.871L301.565 445.925ZM303.206 446.804L302.555 447.563L302.564 447.57L303.206 446.804ZM305.052 449.25L305.983 448.885L305.978 448.874L305.052 449.25ZM305.477 450.334L306.414 449.986L306.411 449.977L306.408 449.969L305.477 450.334ZM305.711 450.935L306.07 451.868L307.098 451.473L306.605 450.487L305.711 450.935ZM303.807 451.667L302.878 452.038L303.245 452.955L304.166 452.6L303.807 451.667ZM303.66 451.213L302.692 451.464L302.698 451.486L302.704 451.507L303.66 451.213ZM303.47 450.568L302.51 450.851L302.518 450.876L302.527 450.901L303.47 450.568ZM303.191 449.88L302.274 450.277L302.279 450.29L302.285 450.303L303.191 449.88ZM302.781 449.147L301.949 449.702L301.965 449.725L301.981 449.747L302.781 449.147ZM302.225 448.488L301.489 449.165L301.503 449.181L301.518 449.195L302.225 448.488ZM301.492 447.902L301.978 447.028L301.971 447.024L301.492 447.902ZM296.38 448.444L297.063 449.175L297.068 449.17L296.38 448.444ZM296.248 453.952L296.865 453.165L296.863 453.163L296.248 453.952ZM297.156 454.567L296.695 455.455L296.702 455.458L296.709 455.462L297.156 454.567ZM298.035 454.948L297.678 455.882L297.694 455.889L297.711 455.894L298.035 454.948ZM298.782 455.227L298.381 456.143L298.406 456.153L298.431 456.163L298.782 455.227ZM299.705 455.52L300.001 454.564L299.991 454.561L299.705 455.52ZM300.936 455.9L300.64 456.856L300.643 456.857L300.936 455.9ZM305.608 458.991L306.458 458.464L306.458 458.463L305.608 458.991ZM305.564 465.363L304.699 464.862L304.694 464.871L305.564 465.363ZM302.137 468L302.398 468.965L302.407 468.963L302.137 468ZM295.984 467.121L295.43 467.953L295.437 467.958L295.984 467.121ZM294.622 466.022L293.915 466.73L293.924 466.738L294.622 466.022ZM293.655 464.821L294.509 464.301L294.508 464.298L293.655 464.821ZM292.703 462.917L293.648 462.59L293.643 462.576L293.638 462.561L292.703 462.917ZM292.917 463.553L294.923 462.85L294.262 460.962L292.255 461.666L292.917 463.553ZM294.593 462.906C294.229 462.906 293.995 462.716 293.908 462.634C293.812 462.544 293.757 462.455 293.735 462.417C293.688 462.337 293.664 462.269 293.659 462.255C293.644 462.213 293.639 462.186 293.641 462.198C293.644 462.211 293.653 462.25 293.667 462.329L295.636 461.981C295.621 461.894 295.605 461.809 295.588 461.739C295.581 461.71 295.567 461.652 295.545 461.589C295.536 461.564 295.509 461.489 295.459 461.403C295.435 461.363 295.379 461.272 295.281 461.18C295.193 461.097 294.958 460.906 294.593 460.906V462.906ZM293.678 462.384C293.727 462.592 293.801 462.839 293.893 463.116L295.79 462.484C295.707 462.233 295.654 462.05 295.625 461.926L293.678 462.384ZM293.904 463.147C294.015 463.448 294.156 463.771 294.323 464.115L296.122 463.242C295.977 462.942 295.863 462.679 295.78 462.452L293.904 463.147ZM294.323 464.115C294.525 464.532 294.799 464.929 295.131 465.306L296.633 463.985C296.398 463.718 296.233 463.47 296.122 463.242L294.323 464.115ZM295.142 465.318C295.489 465.7 295.884 466.042 296.323 466.347L297.462 464.702C297.139 464.479 296.861 464.236 296.622 463.973L295.142 465.318ZM296.314 466.34C297.372 467.09 298.702 467.418 300.218 467.418V465.418C298.979 465.418 298.093 465.15 297.471 464.709L296.314 466.34ZM300.218 467.418C301.771 467.418 303.113 466.99 304.039 465.957L302.549 464.623C302.127 465.094 301.418 465.418 300.218 465.418V467.418ZM304.039 465.957C304.891 465.006 305.305 463.839 305.305 462.521H303.305C303.305 463.391 303.044 464.07 302.549 464.623L304.039 465.957ZM305.305 462.521C305.305 461.303 305.07 460.214 304.484 459.362L302.836 460.495C303.11 460.894 303.305 461.533 303.305 462.521H305.305ZM304.494 459.377C303.921 458.51 302.976 457.872 301.815 457.393L301.052 459.242C302.021 459.642 302.56 460.078 302.826 460.48L304.494 459.377ZM301.81 457.391C301.475 457.255 301.046 457.097 300.53 456.918L299.876 458.808C300.376 458.981 300.768 459.126 301.057 459.244L301.81 457.391ZM300.531 456.919L299.14 456.435L298.483 458.325L299.875 458.808L300.531 456.919ZM299.127 456.431C296.793 455.656 295.428 454.724 294.781 453.751L293.115 454.857C294.129 456.384 296.006 457.502 298.496 458.329L299.127 456.431ZM294.782 453.751C294.326 453.064 294.084 452.246 294.084 451.257H292.084C292.084 452.592 292.418 453.805 293.115 454.856L294.782 453.751ZM294.084 451.257C294.084 450.173 294.505 449.122 295.461 448.081L293.988 446.728C292.756 448.07 292.084 449.587 292.084 451.257H294.084ZM295.451 448.092C295.861 447.659 296.4 447.287 297.095 446.991L296.31 445.152C295.402 445.539 294.624 446.056 293.998 446.717L295.451 448.092ZM297.095 446.991C297.77 446.703 298.476 446.559 299.222 446.559V444.559C298.209 444.559 297.236 444.756 296.31 445.152L297.095 446.991ZM299.222 446.559C300.021 446.559 300.683 446.669 301.225 446.865L301.906 444.985C301.1 444.693 300.2 444.559 299.222 444.559V446.559ZM301.241 446.871C301.843 447.077 302.268 447.316 302.555 447.563L303.857 446.044C303.324 445.588 302.655 445.241 301.89 444.979L301.241 446.871ZM302.564 447.57C302.919 447.867 303.238 448.211 303.524 448.606L305.144 447.433C304.765 446.91 304.333 446.443 303.848 446.037L302.564 447.57ZM303.524 448.606C303.828 449.026 304.019 449.364 304.125 449.626L305.978 448.874C305.792 448.413 305.504 447.931 305.144 447.433L303.524 448.606ZM304.121 449.615L304.546 450.699L306.408 449.969L305.983 448.885L304.121 449.615ZM304.539 450.682C304.655 450.994 304.756 451.262 304.817 451.382L306.605 450.487C306.615 450.506 306.616 450.51 306.603 450.481C306.594 450.457 306.58 450.423 306.562 450.377C306.526 450.284 306.477 450.155 306.414 449.986L304.539 450.682ZM305.352 450.001L303.448 450.734L304.166 452.6L306.07 451.868L305.352 450.001ZM304.735 451.296C304.74 451.308 304.74 451.31 304.733 451.288C304.727 451.27 304.718 451.245 304.707 451.21C304.685 451.14 304.654 451.044 304.616 450.919L302.704 451.507C302.776 451.74 302.839 451.942 302.878 452.038L304.735 451.296ZM304.628 450.962C304.556 450.684 304.484 450.439 304.413 450.236L302.527 450.901C302.572 451.03 302.628 451.215 302.692 451.464L304.628 450.962ZM304.429 450.286C304.359 450.047 304.241 449.764 304.098 449.457L302.285 450.303C302.416 450.582 302.483 450.758 302.51 450.851L304.429 450.286ZM304.109 449.482C303.96 449.138 303.787 448.821 303.581 448.547L301.981 449.747C302.069 449.864 302.169 450.036 302.274 450.277L304.109 449.482ZM303.613 448.593C303.43 448.318 303.198 448.047 302.932 447.781L301.518 449.195C301.72 449.398 301.859 449.567 301.949 449.702L303.613 448.593ZM302.961 447.811C302.671 447.496 302.344 447.231 301.978 447.028L301.007 448.777C301.168 448.866 301.329 448.992 301.489 449.165L302.961 447.811ZM301.971 447.024C301.165 446.585 300.27 446.375 299.31 446.375V448.375C299.971 448.375 300.531 448.517 301.013 448.78L301.971 447.024ZM299.31 446.375C297.896 446.375 296.659 446.802 295.692 447.719L297.068 449.17C297.605 448.661 298.321 448.375 299.31 448.375V446.375ZM295.697 447.714C294.714 448.633 294.252 449.85 294.252 451.257H296.252C296.252 450.32 296.542 449.662 297.063 449.175L295.697 447.714ZM294.252 451.257C294.252 452.68 294.621 453.952 295.633 454.741L296.863 453.163C296.547 452.917 296.252 452.392 296.252 451.257H294.252ZM295.631 454.739C296.014 455.039 296.372 455.287 296.695 455.455L297.618 453.68C297.452 453.594 297.205 453.432 296.865 453.165L295.631 454.739ZM296.709 455.462C296.999 455.607 297.323 455.746 297.678 455.882L298.392 454.014C298.084 453.896 297.822 453.782 297.603 453.673L296.709 455.462ZM297.711 455.894C298.049 456.01 298.265 456.092 298.381 456.143L299.183 454.31C298.987 454.225 298.705 454.121 298.359 454.002L297.711 455.894ZM298.431 456.163C298.625 456.236 298.965 456.343 299.42 456.478L299.991 454.561C299.527 454.423 299.252 454.335 299.133 454.29L298.431 456.163ZM299.409 456.475L300.64 456.856L301.231 454.945L300.001 454.564L299.409 456.475ZM300.643 456.857C302.784 457.512 304.086 458.435 304.759 459.519L306.458 458.463C305.432 456.813 303.619 455.676 301.228 454.944L300.643 456.857ZM304.759 459.519C305.218 460.258 305.473 461.19 305.473 462.36H307.473C307.473 460.894 307.151 459.58 306.458 458.464L304.759 459.519ZM305.473 462.36C305.473 463.101 305.239 463.93 304.699 464.862L306.43 465.865C307.101 464.707 307.473 463.534 307.473 462.36H305.473ZM304.694 464.871C304.079 465.958 303.158 466.675 301.867 467.037L302.407 468.963C304.182 468.465 305.546 467.425 306.435 465.856L304.694 464.871ZM301.875 467.035C301.405 467.162 300.823 467.234 300.115 467.234V469.234C300.951 469.234 301.716 469.15 302.398 468.965L301.875 467.035ZM300.115 467.234C299.444 467.234 298.782 467.144 298.126 466.963L297.593 468.891C298.421 469.119 299.263 469.234 300.115 469.234V467.234ZM298.126 466.963C297.458 466.778 296.933 466.547 296.532 466.284L295.437 467.958C296.051 468.36 296.777 468.665 297.593 468.891L298.126 466.963ZM296.539 466.289C296.09 465.99 295.685 465.662 295.321 465.307L293.924 466.738C294.38 467.183 294.882 467.588 295.43 467.953L296.539 466.289ZM295.329 465.315C294.974 464.96 294.704 464.621 294.509 464.301L292.801 465.342C293.094 465.822 293.47 466.284 293.915 466.73L295.329 465.315ZM294.508 464.298C294.079 463.6 293.801 463.034 293.648 462.59L291.758 463.244C291.976 463.875 292.333 464.578 292.803 465.344L294.508 464.298ZM293.638 462.561L293.52 462.253L291.651 462.965L291.769 463.273L293.638 462.561ZM306.415 447.624H305.415V448.624H306.415V447.624ZM306.415 445.808V444.808H305.415V445.808H306.415ZM321.239 445.808H322.239V444.808H321.239V445.808ZM321.239 447.624V448.624H322.239V447.624H321.239ZM314.911 447.624V446.624H313.911V447.624H314.911ZM314.911 468V469H315.911V468H314.911ZM312.743 468H311.743V469H312.743V468ZM312.743 447.624H313.743V446.624H312.743V447.624ZM307.415 447.624V445.808H305.415V447.624H307.415ZM306.415 446.808H321.239V444.808H306.415V446.808ZM320.239 445.808V447.624H322.239V445.808H320.239ZM321.239 446.624H314.911V448.624H321.239V446.624ZM313.911 447.624V468H315.911V447.624H313.911ZM314.911 467H312.743V469H314.911V467ZM313.743 468V447.624H311.743V468H313.743ZM312.743 446.624H306.415V448.624H312.743V446.624ZM321.576 445.808V444.808H319.899L320.697 446.283L321.576 445.808ZM323.832 445.808L324.714 445.335L324.431 444.808H323.832V445.808ZM329.428 456.252L328.546 456.724L329.428 458.369L330.309 456.724L329.428 456.252ZM335.024 445.808V444.808H334.425L334.142 445.335L335.024 445.808ZM337.279 445.808L338.159 446.283L338.956 444.808H337.279V445.808ZM330.512 458.332L329.632 457.857L329.512 458.079V458.332H330.512ZM330.512 468V469H331.512V468H330.512ZM328.344 468H327.344V469H328.344V468ZM328.344 458.332H329.344V458.079L329.224 457.857L328.344 458.332ZM321.576 446.808H323.832V444.808H321.576V446.808ZM322.951 446.28L328.546 456.724L330.309 455.78L324.714 445.335L322.951 446.28ZM330.309 456.724L335.905 446.28L334.142 445.335L328.546 455.78L330.309 456.724ZM335.024 446.808H337.279V444.808H335.024V446.808ZM336.4 445.332L329.632 457.857L331.392 458.807L338.159 446.283L336.4 445.332ZM329.512 458.332V468H331.512V458.332H329.512ZM330.512 467H328.344V469H330.512V467ZM329.344 468V458.332H327.344V468H329.344ZM329.224 457.857L322.456 445.332L320.697 446.283L327.464 458.807L329.224 457.857ZM339.023 468H338.023V469H339.023V468ZM339.023 445.808V444.808H338.023V445.808H339.023ZM341.191 445.808H342.191V444.808H341.191V445.808ZM341.191 465.92H340.191V466.92H341.191V465.92ZM351.035 465.92H352.035V464.92H351.035V465.92ZM351.035 468V469H352.035V468H351.035ZM340.023 468V445.808H338.023V468H340.023ZM339.023 446.808H341.191V444.808H339.023V446.808ZM340.191 445.808V465.92H342.191V445.808H340.191ZM341.191 466.92H351.035V464.92H341.191V466.92ZM350.035 465.92V468H352.035V465.92H350.035ZM351.035 467H339.023V469H351.035V467ZM352.779 468H351.779V469H352.779V468ZM352.779 445.808V444.808H351.779V445.808H352.779ZM364.805 445.808H365.805V444.808H364.805V445.808ZM364.805 447.624V448.624H365.805V447.624H364.805ZM354.947 447.624V446.624H353.947V447.624H354.947ZM354.947 455.432H353.947V456.432H354.947V455.432ZM362.022 455.432H363.022V454.432H362.022V455.432ZM362.022 457.248V458.248H363.022V457.248H362.022ZM354.947 457.248V456.248H353.947V457.248H354.947ZM354.947 466.052H353.947V467.052H354.947V466.052ZM365.362 466.052H366.362V465.052H365.362V466.052ZM365.362 468V469H366.362V468H365.362ZM353.779 468V445.808H351.779V468H353.779ZM352.779 446.808H364.805V444.808H352.779V446.808ZM363.805 445.808V447.624H365.805V445.808H363.805ZM364.805 446.624H354.947V448.624H364.805V446.624ZM353.947 447.624V455.432H355.947V447.624H353.947ZM354.947 456.432H362.022V454.432H354.947V456.432ZM361.022 455.432V457.248H363.022V455.432H361.022ZM362.022 456.248H354.947V458.248H362.022V456.248ZM353.947 457.248V466.052H355.947V457.248H353.947ZM354.947 467.052H365.362V465.052H354.947V467.052ZM364.362 466.052V468H366.362V466.052H364.362ZM365.362 467H352.779V469H365.362V467Z" fill="white" mask="url(#path-3-outside-2_175_3)"/>
<line x1="376" y1="453" x2="500" y2="453" stroke="white" stroke-width="4"/>
<line x1="161" y1="453" x2="280" y2="453" stroke="white" stroke-width="4"/>
</svg>
