<svg width="620" height="620" viewBox="0 0 620 620" fill="none" xmlns="http://www.w3.org/2000/svg">
<circle cx="309.817" cy="309.817" r="307.317" stroke="#F2D0BD" stroke-width="5"/>
<mask id="path-2-outside-1_140_3" maskUnits="userSpaceOnUse" x="141.157" y="210.353" width="341" height="205" fill="black">
<rect fill="white" x="141.157" y="210.353" width="341" height="205"/>
<path d="M382.753 211.632H387.207C391.66 211.632 396.021 212.19 400.289 213.307C404.557 214.237 408.361 216.005 411.701 218.61C415.041 221.03 417.732 224.379 419.773 228.659C421.814 232.939 422.835 238.429 422.835 245.128V381.064C422.835 387.949 421.722 393.532 419.495 397.812C417.454 402.092 414.67 405.441 411.144 407.86C407.804 410.279 403.815 411.954 399.176 412.885C394.722 413.815 390.176 414.28 385.537 414.28H382.753V211.632ZM477.948 414.28H475.164C470.339 414.28 465.515 413.815 460.69 412.885C456.051 411.954 451.783 410.279 447.886 407.86C444.175 405.441 441.113 402.092 438.701 397.812C436.288 393.532 435.082 387.949 435.082 381.064V313.514H439.536C444.175 313.514 448.814 314.073 453.453 315.189C458.092 316.12 462.175 317.888 465.7 320.493C469.412 322.912 472.381 326.261 474.607 330.541C476.834 334.821 477.948 340.311 477.948 347.01V414.28ZM480.731 272.762C480.731 283.927 478.412 293.045 473.772 300.116C469.133 307.001 461.711 310.444 451.505 310.444C447.793 310.444 444.453 309.886 441.484 308.769C438.515 307.467 436.01 305.885 433.969 304.024C431.928 302.163 430.35 300.023 429.237 297.604C428.124 295.185 427.567 292.859 427.567 290.626C427.567 288.393 427.66 286.625 427.845 285.322C428.031 284.02 428.216 282.903 428.402 281.973C429.33 283.089 430.165 283.927 430.907 284.485C431.835 285.043 433.041 285.322 434.526 285.322C437.123 285.136 438.701 284.113 439.257 282.252C439.814 280.205 440.092 277.786 440.092 274.995V211.911H443.711C447.608 211.911 451.69 212.283 455.958 213.028C460.226 213.772 464.216 215.354 467.927 217.773C471.638 220.006 474.7 223.449 477.113 228.101C479.525 232.567 480.731 238.615 480.731 246.244V272.762Z"/>
<path d="M209.239 258.247C209.239 256.2 209.053 254.153 208.682 252.106C208.497 249.873 207.94 247.919 207.012 246.244C206.27 244.383 205.064 242.895 203.393 241.778C201.909 240.662 199.775 240.103 196.992 240.103C193.466 240.103 190.497 241.22 188.084 243.453C186.971 240.476 186.414 237.777 186.414 235.358C186.414 232.381 186.878 229.496 187.806 226.705C188.919 223.728 190.59 221.123 192.816 218.89C195.043 216.657 197.827 214.889 201.167 213.586C204.692 212.097 208.96 211.353 213.971 211.353C225.105 211.353 233.733 214.703 239.857 221.402C245.981 228.101 249.042 237.312 249.042 249.036V414.28C244.032 414.28 239.115 413.908 234.29 413.164C229.651 412.419 225.383 410.931 221.486 408.698C217.775 406.279 214.806 402.743 212.579 398.091C210.352 393.439 209.239 387.205 209.239 379.389V258.247ZM182.239 414.28H179.456C174.631 414.28 169.992 413.815 165.538 412.885C161.085 411.954 157.095 410.279 153.569 407.86C150.229 405.441 147.446 402.092 145.219 397.812C143.178 393.532 142.157 387.949 142.157 381.064V211.632H146.611C151.064 211.632 155.425 212.19 159.693 213.307C163.961 214.237 167.765 216.005 171.105 218.61C174.445 221.03 177.136 224.379 179.177 228.659C181.219 232.939 182.239 238.429 182.239 245.128V414.28ZM276.042 258.247C276.042 256.2 275.856 254.153 275.485 252.106C275.3 249.873 274.743 247.919 273.815 246.244C273.073 244.383 271.867 242.895 270.197 241.778C268.712 240.662 266.578 240.103 263.795 240.103C260.269 240.103 257.3 241.22 254.888 243.453C253.774 240.476 253.218 237.777 253.218 235.358C253.218 232.381 253.681 229.496 254.609 226.705C255.723 223.728 257.393 221.123 259.62 218.89C261.846 216.657 264.63 214.889 267.97 213.586C271.496 212.097 275.764 211.353 280.774 211.353C291.908 211.353 300.536 214.703 306.66 221.402C312.784 228.101 315.846 237.312 315.846 249.036V414.28C310.835 414.28 305.918 413.908 301.093 413.164C296.454 412.419 292.186 410.931 288.289 408.698C284.578 406.279 281.609 402.743 279.382 398.091C277.155 393.439 276.042 387.205 276.042 379.389V258.247Z"/>
<path d="M365.487 406.539V380.763H326.41L357.854 395.483L326.344 410.202H367.444L367.379 412.165H321.713V410.202L353.222 395.483L321.778 380.763L321.713 378.8H367.444L367.379 406.539H365.487Z"/>
<path d="M365.487 363.949V342.622L333.977 356.033L367.444 370.295V372.389L328.954 356.033L367.444 339.678V363.949H365.487Z"/>
<path d="M329.606 331.233V305.915L365.813 321.289H380.492V323.252H365.813L329.606 338.626V336.532L363.073 322.27L331.563 308.859V331.233H329.606Z"/>
<path d="M329.606 299.885V297.922H367.444V299.885H329.606Z"/>
<path d="M367.444 268.833H329.606V266.87H367.444V268.833ZM367.444 244.627L347.481 264.777L329.606 246.72V243.907L347.481 261.963L367.444 241.814V244.627Z"/>
<path d="M367.444 212.921V214.883H348.525V234.51H367.444V236.472H329.606V234.51H346.568V214.883H329.606V212.921H367.444Z"/>
</mask>
<path d="M382.753 211.632H387.207C391.66 211.632 396.021 212.19 400.289 213.307C404.557 214.237 408.361 216.005 411.701 218.61C415.041 221.03 417.732 224.379 419.773 228.659C421.814 232.939 422.835 238.429 422.835 245.128V381.064C422.835 387.949 421.722 393.532 419.495 397.812C417.454 402.092 414.67 405.441 411.144 407.86C407.804 410.279 403.815 411.954 399.176 412.885C394.722 413.815 390.176 414.28 385.537 414.28H382.753V211.632ZM477.948 414.28H475.164C470.339 414.28 465.515 413.815 460.69 412.885C456.051 411.954 451.783 410.279 447.886 407.86C444.175 405.441 441.113 402.092 438.701 397.812C436.288 393.532 435.082 387.949 435.082 381.064V313.514H439.536C444.175 313.514 448.814 314.073 453.453 315.189C458.092 316.12 462.175 317.888 465.7 320.493C469.412 322.912 472.381 326.261 474.607 330.541C476.834 334.821 477.948 340.311 477.948 347.01V414.28ZM480.731 272.762C480.731 283.927 478.412 293.045 473.772 300.116C469.133 307.001 461.711 310.444 451.505 310.444C447.793 310.444 444.453 309.886 441.484 308.769C438.515 307.467 436.01 305.885 433.969 304.024C431.928 302.163 430.35 300.023 429.237 297.604C428.124 295.185 427.567 292.859 427.567 290.626C427.567 288.393 427.66 286.625 427.845 285.322C428.031 284.02 428.216 282.903 428.402 281.973C429.33 283.089 430.165 283.927 430.907 284.485C431.835 285.043 433.041 285.322 434.526 285.322C437.123 285.136 438.701 284.113 439.257 282.252C439.814 280.205 440.092 277.786 440.092 274.995V211.911H443.711C447.608 211.911 451.69 212.283 455.958 213.028C460.226 213.772 464.216 215.354 467.927 217.773C471.638 220.006 474.7 223.449 477.113 228.101C479.525 232.567 480.731 238.615 480.731 246.244V272.762Z" fill="#F2D0BD"/>
<path d="M209.239 258.247C209.239 256.2 209.053 254.153 208.682 252.106C208.497 249.873 207.94 247.919 207.012 246.244C206.27 244.383 205.064 242.895 203.393 241.778C201.909 240.662 199.775 240.103 196.992 240.103C193.466 240.103 190.497 241.22 188.084 243.453C186.971 240.476 186.414 237.777 186.414 235.358C186.414 232.381 186.878 229.496 187.806 226.705C188.919 223.728 190.59 221.123 192.816 218.89C195.043 216.657 197.827 214.889 201.167 213.586C204.692 212.097 208.96 211.353 213.971 211.353C225.105 211.353 233.733 214.703 239.857 221.402C245.981 228.101 249.042 237.312 249.042 249.036V414.28C244.032 414.28 239.115 413.908 234.29 413.164C229.651 412.419 225.383 410.931 221.486 408.698C217.775 406.279 214.806 402.743 212.579 398.091C210.352 393.439 209.239 387.205 209.239 379.389V258.247ZM182.239 414.28H179.456C174.631 414.28 169.992 413.815 165.538 412.885C161.085 411.954 157.095 410.279 153.569 407.86C150.229 405.441 147.446 402.092 145.219 397.812C143.178 393.532 142.157 387.949 142.157 381.064V211.632H146.611C151.064 211.632 155.425 212.19 159.693 213.307C163.961 214.237 167.765 216.005 171.105 218.61C174.445 221.03 177.136 224.379 179.177 228.659C181.219 232.939 182.239 238.429 182.239 245.128V414.28ZM276.042 258.247C276.042 256.2 275.856 254.153 275.485 252.106C275.3 249.873 274.743 247.919 273.815 246.244C273.073 244.383 271.867 242.895 270.197 241.778C268.712 240.662 266.578 240.103 263.795 240.103C260.269 240.103 257.3 241.22 254.888 243.453C253.774 240.476 253.218 237.777 253.218 235.358C253.218 232.381 253.681 229.496 254.609 226.705C255.723 223.728 257.393 221.123 259.62 218.89C261.846 216.657 264.63 214.889 267.97 213.586C271.496 212.097 275.764 211.353 280.774 211.353C291.908 211.353 300.536 214.703 306.66 221.402C312.784 228.101 315.846 237.312 315.846 249.036V414.28C310.835 414.28 305.918 413.908 301.093 413.164C296.454 412.419 292.186 410.931 288.289 408.698C284.578 406.279 281.609 402.743 279.382 398.091C277.155 393.439 276.042 387.205 276.042 379.389V258.247Z" fill="#F2D0BD"/>
<path d="M365.487 406.539V380.763H326.41L357.854 395.483L326.344 410.202H367.444L367.379 412.165H321.713V410.202L353.222 395.483L321.778 380.763L321.713 378.8H367.444L367.379 406.539H365.487Z" fill="#F2D0BD"/>
<path d="M365.487 363.949V342.622L333.977 356.033L367.444 370.295V372.389L328.954 356.033L367.444 339.678V363.949H365.487Z" fill="#F2D0BD"/>
<path d="M329.606 331.233V305.915L365.813 321.289H380.492V323.252H365.813L329.606 338.626V336.532L363.073 322.27L331.563 308.859V331.233H329.606Z" fill="#F2D0BD"/>
<path d="M329.606 299.885V297.922H367.444V299.885H329.606Z" fill="#F2D0BD"/>
<path d="M367.444 268.833H329.606V266.87H367.444V268.833ZM367.444 244.627L347.481 264.777L329.606 246.72V243.907L347.481 261.963L367.444 241.814V244.627Z" fill="#F2D0BD"/>
<path d="M367.444 212.921V214.883H348.525V234.51H367.444V236.472H329.606V234.51H346.568V214.883H329.606V212.921H367.444Z" fill="#F2D0BD"/>
<path d="M382.753 211.632H387.207C391.66 211.632 396.021 212.19 400.289 213.307C404.557 214.237 408.361 216.005 411.701 218.61C415.041 221.03 417.732 224.379 419.773 228.659C421.814 232.939 422.835 238.429 422.835 245.128V381.064C422.835 387.949 421.722 393.532 419.495 397.812C417.454 402.092 414.67 405.441 411.144 407.86C407.804 410.279 403.815 411.954 399.176 412.885C394.722 413.815 390.176 414.28 385.537 414.28H382.753V211.632ZM477.948 414.28H475.164C470.339 414.28 465.515 413.815 460.69 412.885C456.051 411.954 451.783 410.279 447.886 407.86C444.175 405.441 441.113 402.092 438.701 397.812C436.288 393.532 435.082 387.949 435.082 381.064V313.514H439.536C444.175 313.514 448.814 314.073 453.453 315.189C458.092 316.12 462.175 317.888 465.7 320.493C469.412 322.912 472.381 326.261 474.607 330.541C476.834 334.821 477.948 340.311 477.948 347.01V414.28ZM480.731 272.762C480.731 283.927 478.412 293.045 473.772 300.116C469.133 307.001 461.711 310.444 451.505 310.444C447.793 310.444 444.453 309.886 441.484 308.769C438.515 307.467 436.01 305.885 433.969 304.024C431.928 302.163 430.35 300.023 429.237 297.604C428.124 295.185 427.567 292.859 427.567 290.626C427.567 288.393 427.66 286.625 427.845 285.322C428.031 284.02 428.216 282.903 428.402 281.973C429.33 283.089 430.165 283.927 430.907 284.485C431.835 285.043 433.041 285.322 434.526 285.322C437.123 285.136 438.701 284.113 439.257 282.252C439.814 280.205 440.092 277.786 440.092 274.995V211.911H443.711C447.608 211.911 451.69 212.283 455.958 213.028C460.226 213.772 464.216 215.354 467.927 217.773C471.638 220.006 474.7 223.449 477.113 228.101C479.525 232.567 480.731 238.615 480.731 246.244V272.762Z" stroke="#F2D0BD" stroke-width="2" mask="url(#path-2-outside-1_140_3)"/>
<path d="M209.239 258.247C209.239 256.2 209.053 254.153 208.682 252.106C208.497 249.873 207.94 247.919 207.012 246.244C206.27 244.383 205.064 242.895 203.393 241.778C201.909 240.662 199.775 240.103 196.992 240.103C193.466 240.103 190.497 241.22 188.084 243.453C186.971 240.476 186.414 237.777 186.414 235.358C186.414 232.381 186.878 229.496 187.806 226.705C188.919 223.728 190.59 221.123 192.816 218.89C195.043 216.657 197.827 214.889 201.167 213.586C204.692 212.097 208.96 211.353 213.971 211.353C225.105 211.353 233.733 214.703 239.857 221.402C245.981 228.101 249.042 237.312 249.042 249.036V414.28C244.032 414.28 239.115 413.908 234.29 413.164C229.651 412.419 225.383 410.931 221.486 408.698C217.775 406.279 214.806 402.743 212.579 398.091C210.352 393.439 209.239 387.205 209.239 379.389V258.247ZM182.239 414.28H179.456C174.631 414.28 169.992 413.815 165.538 412.885C161.085 411.954 157.095 410.279 153.569 407.86C150.229 405.441 147.446 402.092 145.219 397.812C143.178 393.532 142.157 387.949 142.157 381.064V211.632H146.611C151.064 211.632 155.425 212.19 159.693 213.307C163.961 214.237 167.765 216.005 171.105 218.61C174.445 221.03 177.136 224.379 179.177 228.659C181.219 232.939 182.239 238.429 182.239 245.128V414.28ZM276.042 258.247C276.042 256.2 275.856 254.153 275.485 252.106C275.3 249.873 274.743 247.919 273.815 246.244C273.073 244.383 271.867 242.895 270.197 241.778C268.712 240.662 266.578 240.103 263.795 240.103C260.269 240.103 257.3 241.22 254.888 243.453C253.774 240.476 253.218 237.777 253.218 235.358C253.218 232.381 253.681 229.496 254.609 226.705C255.723 223.728 257.393 221.123 259.62 218.89C261.846 216.657 264.63 214.889 267.97 213.586C271.496 212.097 275.764 211.353 280.774 211.353C291.908 211.353 300.536 214.703 306.66 221.402C312.784 228.101 315.846 237.312 315.846 249.036V414.28C310.835 414.28 305.918 413.908 301.093 413.164C296.454 412.419 292.186 410.931 288.289 408.698C284.578 406.279 281.609 402.743 279.382 398.091C277.155 393.439 276.042 387.205 276.042 379.389V258.247Z" stroke="#F2D0BD" stroke-width="2" mask="url(#path-2-outside-1_140_3)"/>
<path d="M365.487 406.539V380.763H326.41L357.854 395.483L326.344 410.202H367.444L367.379 412.165H321.713V410.202L353.222 395.483L321.778 380.763L321.713 378.8H367.444L367.379 406.539H365.487Z" stroke="#F2D0BD" stroke-width="2" mask="url(#path-2-outside-1_140_3)"/>
<path d="M365.487 363.949V342.622L333.977 356.033L367.444 370.295V372.389L328.954 356.033L367.444 339.678V363.949H365.487Z" stroke="#F2D0BD" stroke-width="2" mask="url(#path-2-outside-1_140_3)"/>
<path d="M329.606 331.233V305.915L365.813 321.289H380.492V323.252H365.813L329.606 338.626V336.532L363.073 322.27L331.563 308.859V331.233H329.606Z" stroke="#F2D0BD" stroke-width="2" mask="url(#path-2-outside-1_140_3)"/>
<path d="M329.606 299.885V297.922H367.444V299.885H329.606Z" stroke="#F2D0BD" stroke-width="2" mask="url(#path-2-outside-1_140_3)"/>
<path d="M367.444 268.833H329.606V266.87H367.444V268.833ZM367.444 244.627L347.481 264.777L329.606 246.72V243.907L347.481 261.963L367.444 241.814V244.627Z" stroke="#F2D0BD" stroke-width="2" mask="url(#path-2-outside-1_140_3)"/>
<path d="M367.444 212.921V214.883H348.525V234.51H367.444V236.472H329.606V234.51H346.568V214.883H329.606V212.921H367.444Z" stroke="#F2D0BD" stroke-width="2" mask="url(#path-2-outside-1_140_3)"/>
<path d="M292.586 462.609L294.593 461.906C294.603 461.906 294.622 461.989 294.651 462.155C294.69 462.321 294.754 462.536 294.842 462.8C294.939 463.063 295.066 463.356 295.223 463.679C295.379 464.001 295.599 464.323 295.882 464.646C296.175 464.968 296.512 465.261 296.893 465.524C297.732 466.12 298.841 466.418 300.218 466.418C301.595 466.418 302.62 466.042 303.294 465.29C303.968 464.538 304.305 463.615 304.305 462.521C304.305 461.418 304.09 460.554 303.66 459.929C303.24 459.294 302.498 458.757 301.434 458.317C301.121 458.19 300.711 458.039 300.203 457.863L298.812 457.38C296.399 456.579 294.778 455.554 293.948 454.304C293.372 453.435 293.084 452.419 293.084 451.257C293.084 449.88 293.631 448.596 294.725 447.404C295.242 446.857 295.901 446.413 296.702 446.071C297.503 445.729 298.343 445.559 299.222 445.559C300.11 445.559 300.892 445.681 301.565 445.925C302.249 446.159 302.796 446.452 303.206 446.804C303.626 447.155 304.002 447.561 304.334 448.02C304.666 448.479 304.905 448.889 305.052 449.25L305.477 450.334C305.604 450.676 305.682 450.876 305.711 450.935L303.807 451.667C303.787 451.618 303.738 451.467 303.66 451.213C303.592 450.949 303.528 450.734 303.47 450.568C303.421 450.402 303.328 450.173 303.191 449.88C303.064 449.587 302.928 449.343 302.781 449.147C302.645 448.942 302.459 448.723 302.225 448.488C302 448.244 301.756 448.049 301.492 447.902C300.848 447.551 300.12 447.375 299.31 447.375C298.108 447.375 297.132 447.731 296.38 448.444C295.628 449.147 295.252 450.085 295.252 451.257C295.252 452.536 295.584 453.435 296.248 453.952C296.609 454.235 296.912 454.44 297.156 454.567C297.41 454.694 297.703 454.821 298.035 454.948C298.377 455.065 298.626 455.158 298.782 455.227C298.938 455.285 299.246 455.383 299.705 455.52L300.936 455.9C303.201 456.594 304.759 457.624 305.608 458.991C306.185 459.919 306.473 461.042 306.473 462.36C306.473 463.317 306.17 464.318 305.564 465.363C304.812 466.691 303.67 467.57 302.137 468C301.561 468.156 300.887 468.234 300.115 468.234C299.354 468.234 298.602 468.132 297.859 467.927C297.117 467.722 296.492 467.453 295.984 467.121C295.486 466.789 295.032 466.423 294.622 466.022C294.222 465.622 293.899 465.222 293.655 464.821C293.206 464.089 292.889 463.454 292.703 462.917L292.586 462.609ZM306.415 447.624V445.808H321.239V447.624H314.911V468H312.743V447.624H306.415ZM321.576 445.808H323.832L329.428 456.252L335.024 445.808H337.279L330.512 458.332V468H328.344V458.332L321.576 445.808ZM339.023 468V445.808H341.191V465.92H351.035V468H339.023ZM352.779 468V445.808H364.805V447.624H354.947V455.432H362.022V457.248H354.947V466.052H365.362V468H352.779Z" fill="#F2D0BD"/>
<line x1="376" y1="453" x2="500" y2="453" stroke="#F2D0BD" stroke-width="4"/>
<line x1="161" y1="453" x2="280" y2="453" stroke="#F2D0BD" stroke-width="4"/>
</svg>
