<svg width="359" height="259" viewBox="0 0 359 259" fill="none" xmlns="http://www.w3.org/2000/svg">
<mask id="path-1-outside-1_190_3" maskUnits="userSpaceOnUse" x="0.157227" y="0.353027" width="341" height="205" fill="black">
<rect fill="white" x="0.157227" y="0.353027" width="341" height="205"/>
<path d="M241.753 1.63217H246.207C250.66 1.63217 255.021 2.19043 259.289 3.30694C263.557 4.23737 267.361 6.0052 270.701 8.6104C274.041 11.0295 276.732 14.3791 278.773 18.6591C280.814 22.9391 281.835 28.4286 281.835 35.1277V171.064C281.835 177.949 280.722 183.532 278.495 187.812C276.454 192.092 273.67 195.441 270.144 197.86C266.804 200.279 262.815 201.954 258.176 202.885C253.722 203.815 249.176 204.28 244.537 204.28H241.753V1.63217ZM336.948 204.28H334.164C329.339 204.28 324.515 203.815 319.69 202.885C315.051 201.954 310.783 200.279 306.886 197.86C303.175 195.441 300.113 192.092 297.701 187.812C295.288 183.532 294.082 177.949 294.082 171.064V103.514H298.536C303.175 103.514 307.814 104.073 312.453 105.189C317.092 106.12 321.175 107.888 324.7 110.493C328.412 112.912 331.381 116.261 333.607 120.541C335.834 124.821 336.948 130.311 336.948 137.01V204.28ZM339.731 62.7616C339.731 73.9268 337.412 83.045 332.772 90.1163C328.133 97.0015 320.711 100.444 310.505 100.444C306.793 100.444 303.453 99.8858 300.484 98.7693C297.515 97.4667 295.01 95.885 292.969 94.0241C290.928 92.1632 289.35 90.0232 288.237 87.6041C287.124 85.185 286.567 82.8589 286.567 80.6259C286.567 78.3928 286.66 76.625 286.845 75.3224C287.031 74.0198 287.216 72.9033 287.402 71.9728C288.33 73.0894 289.165 73.9268 289.907 74.485C290.835 75.0433 292.041 75.3224 293.526 75.3224C296.123 75.1363 297.701 74.1128 298.257 72.252C298.814 70.205 299.092 67.7859 299.092 64.9946V1.9113H302.711C306.608 1.9113 310.69 2.28347 314.958 3.02782C319.226 3.77216 323.216 5.3539 326.927 7.77301C330.638 10.0061 333.7 13.4487 336.113 18.1008C338.525 22.5669 339.731 28.6147 339.731 36.2442V62.7616Z"/>
<path d="M68.2388 48.2468C68.2388 46.1999 68.0532 44.1529 67.6821 42.106C67.4965 39.8729 66.9398 37.919 66.012 36.2442C65.2697 34.3834 64.0636 32.8947 62.3935 31.7782C60.909 30.6617 58.775 30.1034 55.9915 30.1034C52.4658 30.1034 49.4968 31.2199 47.0844 33.4529C45.971 30.4756 45.4143 27.7773 45.4143 25.3582C45.4143 22.3808 45.8783 19.4965 46.8061 16.7052C47.9195 13.7278 49.5895 11.1226 51.8163 8.88953C54.0431 6.6565 56.8266 4.88868 60.1667 3.58607C63.6924 2.09737 67.9604 1.35303 72.9707 1.35303C84.1045 1.35303 92.7333 4.70258 98.8569 11.4017C104.981 18.1008 108.042 27.3121 108.042 39.0355V204.28C103.032 204.28 98.1146 203.908 93.29 203.164C88.6508 202.419 84.3829 200.931 80.486 198.698C76.7747 196.279 73.8057 192.743 71.5789 188.091C69.3521 183.439 68.2388 177.205 68.2388 169.389V48.2468ZM41.2391 204.28H38.4557C33.631 204.28 28.9919 203.815 24.5383 202.885C20.0848 201.954 16.0952 200.279 12.5694 197.86C9.22928 195.441 6.44581 192.092 4.21904 187.812C2.17783 183.532 1.15723 177.949 1.15723 171.064V1.63217H5.61077C10.0643 1.63217 14.4251 2.19043 18.6931 3.30694C22.961 4.23737 26.7651 6.0052 30.1053 8.6104C33.4454 11.0295 36.1361 14.3791 38.1773 18.6591C40.2185 22.9391 41.2391 28.4286 41.2391 35.1277V204.28ZM135.042 48.2468C135.042 46.1999 134.856 44.1529 134.485 42.106C134.3 39.8729 133.743 37.919 132.815 36.2442C132.073 34.3834 130.867 32.8947 129.197 31.7782C127.712 30.6617 125.578 30.1034 122.795 30.1034C119.269 30.1034 116.3 31.2199 113.888 33.4529C112.774 30.4756 112.218 27.7773 112.218 25.3582C112.218 22.3808 112.681 19.4965 113.609 16.7052C114.723 13.7278 116.393 11.1226 118.62 8.88953C120.846 6.6565 123.63 4.88868 126.97 3.58607C130.496 2.09737 134.764 1.35303 139.774 1.35303C150.908 1.35303 159.536 4.70258 165.66 11.4017C171.784 18.1008 174.846 27.3121 174.846 39.0355V204.28C169.835 204.28 164.918 203.908 160.093 203.164C155.454 202.419 151.186 200.931 147.289 198.698C143.578 196.279 140.609 192.743 138.382 188.091C136.155 183.439 135.042 177.205 135.042 169.389V48.2468Z"/>
<path d="M224.487 196.539V170.763H185.41L216.854 185.483L185.344 200.202H226.444L226.379 202.165H180.713V200.202L212.222 185.483L180.778 170.763L180.713 168.8H226.444L226.379 196.539H224.487Z"/>
<path d="M224.487 153.949V132.622L192.977 146.033L226.444 160.295V162.389L187.954 146.033L226.444 129.678V153.949H224.487Z"/>
<path d="M188.606 121.233V95.9152L224.813 111.289H239.492V113.252H224.813L188.606 128.626V126.532L222.073 112.27L190.563 98.8591V121.233H188.606Z"/>
<path d="M188.606 89.8847V87.9221H226.444V89.8847H188.606Z"/>
<path d="M226.444 58.8327H188.606V56.8701H226.444V58.8327ZM226.444 34.6269L206.481 54.7766L188.606 36.7204V33.9073L206.481 51.9635L226.444 31.8138V34.6269Z"/>
<path d="M226.444 2.92072V4.88335H207.525V24.5097H226.444V26.4723H188.606V24.5097H205.568V4.88335H188.606V2.92072H226.444Z"/>
</mask>
<path d="M241.753 1.63217H246.207C250.66 1.63217 255.021 2.19043 259.289 3.30694C263.557 4.23737 267.361 6.0052 270.701 8.6104C274.041 11.0295 276.732 14.3791 278.773 18.6591C280.814 22.9391 281.835 28.4286 281.835 35.1277V171.064C281.835 177.949 280.722 183.532 278.495 187.812C276.454 192.092 273.67 195.441 270.144 197.86C266.804 200.279 262.815 201.954 258.176 202.885C253.722 203.815 249.176 204.28 244.537 204.28H241.753V1.63217ZM336.948 204.28H334.164C329.339 204.28 324.515 203.815 319.69 202.885C315.051 201.954 310.783 200.279 306.886 197.86C303.175 195.441 300.113 192.092 297.701 187.812C295.288 183.532 294.082 177.949 294.082 171.064V103.514H298.536C303.175 103.514 307.814 104.073 312.453 105.189C317.092 106.12 321.175 107.888 324.7 110.493C328.412 112.912 331.381 116.261 333.607 120.541C335.834 124.821 336.948 130.311 336.948 137.01V204.28ZM339.731 62.7616C339.731 73.9268 337.412 83.045 332.772 90.1163C328.133 97.0015 320.711 100.444 310.505 100.444C306.793 100.444 303.453 99.8858 300.484 98.7693C297.515 97.4667 295.01 95.885 292.969 94.0241C290.928 92.1632 289.35 90.0232 288.237 87.6041C287.124 85.185 286.567 82.8589 286.567 80.6259C286.567 78.3928 286.66 76.625 286.845 75.3224C287.031 74.0198 287.216 72.9033 287.402 71.9728C288.33 73.0894 289.165 73.9268 289.907 74.485C290.835 75.0433 292.041 75.3224 293.526 75.3224C296.123 75.1363 297.701 74.1128 298.257 72.252C298.814 70.205 299.092 67.7859 299.092 64.9946V1.9113H302.711C306.608 1.9113 310.69 2.28347 314.958 3.02782C319.226 3.77216 323.216 5.3539 326.927 7.77301C330.638 10.0061 333.7 13.4487 336.113 18.1008C338.525 22.5669 339.731 28.6147 339.731 36.2442V62.7616Z" fill="#F2D0BD"/>
<path d="M68.2388 48.2468C68.2388 46.1999 68.0532 44.1529 67.6821 42.106C67.4965 39.8729 66.9398 37.919 66.012 36.2442C65.2697 34.3834 64.0636 32.8947 62.3935 31.7782C60.909 30.6617 58.775 30.1034 55.9915 30.1034C52.4658 30.1034 49.4968 31.2199 47.0844 33.4529C45.971 30.4756 45.4143 27.7773 45.4143 25.3582C45.4143 22.3808 45.8783 19.4965 46.8061 16.7052C47.9195 13.7278 49.5895 11.1226 51.8163 8.88953C54.0431 6.6565 56.8266 4.88868 60.1667 3.58607C63.6924 2.09737 67.9604 1.35303 72.9707 1.35303C84.1045 1.35303 92.7333 4.70258 98.8569 11.4017C104.981 18.1008 108.042 27.3121 108.042 39.0355V204.28C103.032 204.28 98.1146 203.908 93.29 203.164C88.6508 202.419 84.3829 200.931 80.486 198.698C76.7747 196.279 73.8057 192.743 71.5789 188.091C69.3521 183.439 68.2388 177.205 68.2388 169.389V48.2468ZM41.2391 204.28H38.4557C33.631 204.28 28.9919 203.815 24.5383 202.885C20.0848 201.954 16.0952 200.279 12.5694 197.86C9.22928 195.441 6.44581 192.092 4.21904 187.812C2.17783 183.532 1.15723 177.949 1.15723 171.064V1.63217H5.61077C10.0643 1.63217 14.4251 2.19043 18.6931 3.30694C22.961 4.23737 26.7651 6.0052 30.1053 8.6104C33.4454 11.0295 36.1361 14.3791 38.1773 18.6591C40.2185 22.9391 41.2391 28.4286 41.2391 35.1277V204.28ZM135.042 48.2468C135.042 46.1999 134.856 44.1529 134.485 42.106C134.3 39.8729 133.743 37.919 132.815 36.2442C132.073 34.3834 130.867 32.8947 129.197 31.7782C127.712 30.6617 125.578 30.1034 122.795 30.1034C119.269 30.1034 116.3 31.2199 113.888 33.4529C112.774 30.4756 112.218 27.7773 112.218 25.3582C112.218 22.3808 112.681 19.4965 113.609 16.7052C114.723 13.7278 116.393 11.1226 118.62 8.88953C120.846 6.6565 123.63 4.88868 126.97 3.58607C130.496 2.09737 134.764 1.35303 139.774 1.35303C150.908 1.35303 159.536 4.70258 165.66 11.4017C171.784 18.1008 174.846 27.3121 174.846 39.0355V204.28C169.835 204.28 164.918 203.908 160.093 203.164C155.454 202.419 151.186 200.931 147.289 198.698C143.578 196.279 140.609 192.743 138.382 188.091C136.155 183.439 135.042 177.205 135.042 169.389V48.2468Z" fill="#F2D0BD"/>
<path d="M224.487 196.539V170.763H185.41L216.854 185.483L185.344 200.202H226.444L226.379 202.165H180.713V200.202L212.222 185.483L180.778 170.763L180.713 168.8H226.444L226.379 196.539H224.487Z" fill="#F2D0BD"/>
<path d="M224.487 153.949V132.622L192.977 146.033L226.444 160.295V162.389L187.954 146.033L226.444 129.678V153.949H224.487Z" fill="#F2D0BD"/>
<path d="M188.606 121.233V95.9152L224.813 111.289H239.492V113.252H224.813L188.606 128.626V126.532L222.073 112.27L190.563 98.8591V121.233H188.606Z" fill="#F2D0BD"/>
<path d="M188.606 89.8847V87.9221H226.444V89.8847H188.606Z" fill="#F2D0BD"/>
<path d="M226.444 58.8327H188.606V56.8701H226.444V58.8327ZM226.444 34.6269L206.481 54.7766L188.606 36.7204V33.9073L206.481 51.9635L226.444 31.8138V34.6269Z" fill="#F2D0BD"/>
<path d="M226.444 2.92072V4.88335H207.525V24.5097H226.444V26.4723H188.606V24.5097H205.568V4.88335H188.606V2.92072H226.444Z" fill="#F2D0BD"/>
<path d="M241.753 1.63217H246.207C250.66 1.63217 255.021 2.19043 259.289 3.30694C263.557 4.23737 267.361 6.0052 270.701 8.6104C274.041 11.0295 276.732 14.3791 278.773 18.6591C280.814 22.9391 281.835 28.4286 281.835 35.1277V171.064C281.835 177.949 280.722 183.532 278.495 187.812C276.454 192.092 273.67 195.441 270.144 197.86C266.804 200.279 262.815 201.954 258.176 202.885C253.722 203.815 249.176 204.28 244.537 204.28H241.753V1.63217ZM336.948 204.28H334.164C329.339 204.28 324.515 203.815 319.69 202.885C315.051 201.954 310.783 200.279 306.886 197.86C303.175 195.441 300.113 192.092 297.701 187.812C295.288 183.532 294.082 177.949 294.082 171.064V103.514H298.536C303.175 103.514 307.814 104.073 312.453 105.189C317.092 106.12 321.175 107.888 324.7 110.493C328.412 112.912 331.381 116.261 333.607 120.541C335.834 124.821 336.948 130.311 336.948 137.01V204.28ZM339.731 62.7616C339.731 73.9268 337.412 83.045 332.772 90.1163C328.133 97.0015 320.711 100.444 310.505 100.444C306.793 100.444 303.453 99.8858 300.484 98.7693C297.515 97.4667 295.01 95.885 292.969 94.0241C290.928 92.1632 289.35 90.0232 288.237 87.6041C287.124 85.185 286.567 82.8589 286.567 80.6259C286.567 78.3928 286.66 76.625 286.845 75.3224C287.031 74.0198 287.216 72.9033 287.402 71.9728C288.33 73.0894 289.165 73.9268 289.907 74.485C290.835 75.0433 292.041 75.3224 293.526 75.3224C296.123 75.1363 297.701 74.1128 298.257 72.252C298.814 70.205 299.092 67.7859 299.092 64.9946V1.9113H302.711C306.608 1.9113 310.69 2.28347 314.958 3.02782C319.226 3.77216 323.216 5.3539 326.927 7.77301C330.638 10.0061 333.7 13.4487 336.113 18.1008C338.525 22.5669 339.731 28.6147 339.731 36.2442V62.7616Z" stroke="#F2D0BD" stroke-width="2" mask="url(#path-1-outside-1_190_3)"/>
<path d="M68.2388 48.2468C68.2388 46.1999 68.0532 44.1529 67.6821 42.106C67.4965 39.8729 66.9398 37.919 66.012 36.2442C65.2697 34.3834 64.0636 32.8947 62.3935 31.7782C60.909 30.6617 58.775 30.1034 55.9915 30.1034C52.4658 30.1034 49.4968 31.2199 47.0844 33.4529C45.971 30.4756 45.4143 27.7773 45.4143 25.3582C45.4143 22.3808 45.8783 19.4965 46.8061 16.7052C47.9195 13.7278 49.5895 11.1226 51.8163 8.88953C54.0431 6.6565 56.8266 4.88868 60.1667 3.58607C63.6924 2.09737 67.9604 1.35303 72.9707 1.35303C84.1045 1.35303 92.7333 4.70258 98.8569 11.4017C104.981 18.1008 108.042 27.3121 108.042 39.0355V204.28C103.032 204.28 98.1146 203.908 93.29 203.164C88.6508 202.419 84.3829 200.931 80.486 198.698C76.7747 196.279 73.8057 192.743 71.5789 188.091C69.3521 183.439 68.2388 177.205 68.2388 169.389V48.2468ZM41.2391 204.28H38.4557C33.631 204.28 28.9919 203.815 24.5383 202.885C20.0848 201.954 16.0952 200.279 12.5694 197.86C9.22928 195.441 6.44581 192.092 4.21904 187.812C2.17783 183.532 1.15723 177.949 1.15723 171.064V1.63217H5.61077C10.0643 1.63217 14.4251 2.19043 18.6931 3.30694C22.961 4.23737 26.7651 6.0052 30.1053 8.6104C33.4454 11.0295 36.1361 14.3791 38.1773 18.6591C40.2185 22.9391 41.2391 28.4286 41.2391 35.1277V204.28ZM135.042 48.2468C135.042 46.1999 134.856 44.1529 134.485 42.106C134.3 39.8729 133.743 37.919 132.815 36.2442C132.073 34.3834 130.867 32.8947 129.197 31.7782C127.712 30.6617 125.578 30.1034 122.795 30.1034C119.269 30.1034 116.3 31.2199 113.888 33.4529C112.774 30.4756 112.218 27.7773 112.218 25.3582C112.218 22.3808 112.681 19.4965 113.609 16.7052C114.723 13.7278 116.393 11.1226 118.62 8.88953C120.846 6.6565 123.63 4.88868 126.97 3.58607C130.496 2.09737 134.764 1.35303 139.774 1.35303C150.908 1.35303 159.536 4.70258 165.66 11.4017C171.784 18.1008 174.846 27.3121 174.846 39.0355V204.28C169.835 204.28 164.918 203.908 160.093 203.164C155.454 202.419 151.186 200.931 147.289 198.698C143.578 196.279 140.609 192.743 138.382 188.091C136.155 183.439 135.042 177.205 135.042 169.389V48.2468Z" stroke="#F2D0BD" stroke-width="2" mask="url(#path-1-outside-1_190_3)"/>
<path d="M224.487 196.539V170.763H185.41L216.854 185.483L185.344 200.202H226.444L226.379 202.165H180.713V200.202L212.222 185.483L180.778 170.763L180.713 168.8H226.444L226.379 196.539H224.487Z" stroke="#F2D0BD" stroke-width="2" mask="url(#path-1-outside-1_190_3)"/>
<path d="M224.487 153.949V132.622L192.977 146.033L226.444 160.295V162.389L187.954 146.033L226.444 129.678V153.949H224.487Z" stroke="#F2D0BD" stroke-width="2" mask="url(#path-1-outside-1_190_3)"/>
<path d="M188.606 121.233V95.9152L224.813 111.289H239.492V113.252H224.813L188.606 128.626V126.532L222.073 112.27L190.563 98.8591V121.233H188.606Z" stroke="#F2D0BD" stroke-width="2" mask="url(#path-1-outside-1_190_3)"/>
<path d="M188.606 89.8847V87.9221H226.444V89.8847H188.606Z" stroke="#F2D0BD" stroke-width="2" mask="url(#path-1-outside-1_190_3)"/>
<path d="M226.444 58.8327H188.606V56.8701H226.444V58.8327ZM226.444 34.6269L206.481 54.7766L188.606 36.7204V33.9073L206.481 51.9635L226.444 31.8138V34.6269Z" stroke="#F2D0BD" stroke-width="2" mask="url(#path-1-outside-1_190_3)"/>
<path d="M226.444 2.92072V4.88335H207.525V24.5097H226.444V26.4723H188.606V24.5097H205.568V4.88335H188.606V2.92072H226.444Z" stroke="#F2D0BD" stroke-width="2" mask="url(#path-1-outside-1_190_3)"/>
<path d="M151.586 252.609L153.593 251.906C153.603 251.906 153.622 251.989 153.651 252.155C153.69 252.321 153.754 252.536 153.842 252.8C153.939 253.063 154.066 253.356 154.223 253.679C154.379 254.001 154.599 254.323 154.882 254.646C155.175 254.968 155.512 255.261 155.893 255.524C156.732 256.12 157.841 256.418 159.218 256.418C160.595 256.418 161.62 256.042 162.294 255.29C162.968 254.538 163.305 253.615 163.305 252.521C163.305 251.418 163.09 250.554 162.66 249.929C162.24 249.294 161.498 248.757 160.434 248.317C160.121 248.19 159.711 248.039 159.203 247.863L157.812 247.38C155.399 246.579 153.778 245.554 152.948 244.304C152.372 243.435 152.084 242.419 152.084 241.257C152.084 239.88 152.631 238.596 153.725 237.404C154.242 236.857 154.901 236.413 155.702 236.071C156.503 235.729 157.343 235.559 158.222 235.559C159.11 235.559 159.892 235.681 160.565 235.925C161.249 236.159 161.796 236.452 162.206 236.804C162.626 237.155 163.002 237.561 163.334 238.02C163.666 238.479 163.905 238.889 164.052 239.25L164.477 240.334C164.604 240.676 164.682 240.876 164.711 240.935L162.807 241.667C162.787 241.618 162.738 241.467 162.66 241.213C162.592 240.949 162.528 240.734 162.47 240.568C162.421 240.402 162.328 240.173 162.191 239.88C162.064 239.587 161.928 239.343 161.781 239.147C161.645 238.942 161.459 238.723 161.225 238.488C161 238.244 160.756 238.049 160.492 237.902C159.848 237.551 159.12 237.375 158.31 237.375C157.108 237.375 156.132 237.731 155.38 238.444C154.628 239.147 154.252 240.085 154.252 241.257C154.252 242.536 154.584 243.435 155.248 243.952C155.609 244.235 155.912 244.44 156.156 244.567C156.41 244.694 156.703 244.821 157.035 244.948C157.377 245.065 157.626 245.158 157.782 245.227C157.938 245.285 158.246 245.383 158.705 245.52L159.936 245.9C162.201 246.594 163.759 247.624 164.608 248.991C165.185 249.919 165.473 251.042 165.473 252.36C165.473 253.317 165.17 254.318 164.564 255.363C163.812 256.691 162.67 257.57 161.137 258C160.561 258.156 159.887 258.234 159.115 258.234C158.354 258.234 157.602 258.132 156.859 257.927C156.117 257.722 155.492 257.453 154.984 257.121C154.486 256.789 154.032 256.423 153.622 256.022C153.222 255.622 152.899 255.222 152.655 254.821C152.206 254.089 151.889 253.454 151.703 252.917L151.586 252.609ZM165.415 237.624V235.808H180.239V237.624H173.911V258H171.743V237.624H165.415ZM180.576 235.808H182.832L188.428 246.252L194.024 235.808H196.279L189.512 248.332V258H187.344V248.332L180.576 235.808ZM198.023 258V235.808H200.191V255.92H210.035V258H198.023ZM211.779 258V235.808H223.805V237.624H213.947V245.432H221.022V247.248H213.947V256.052H224.362V258H211.779Z" fill="#F2D0BD"/>
<line x1="235" y1="243" x2="359" y2="243" stroke="#F2D0BD" stroke-width="4"/>
<line x1="20" y1="243" x2="139" y2="243" stroke="#F2D0BD" stroke-width="4"/>
</svg>
